<svg width="169.000000" height="102.000000" viewBox="0 0 169 102" fill="none" xmlns="http://www.w3.org/2000/svg" xmlns:xlink="http://www.w3.org/1999/xlink">
	<desc>
			Created with Pixso.
	</desc>
	<defs/>
	<path id="illustration (arrow)" d="M168.33 3.81Q168.52 1.45 168.5 -0.03L165.5 0.02Q165.52 1.35 165.34 3.57Q165.29 4.19 165.69 4.66Q166.09 5.13 166.71 5.18Q167.33 5.23 167.8 4.83Q168.28 4.43 168.33 3.81ZM164.78 20.11Q166.2 16.34 167.11 12.11Q167.24 11.5 166.9 10.98Q166.56 10.46 165.95 10.33Q165.35 10.19 164.83 10.53Q164.3 10.87 164.17 11.48Q163.31 15.49 161.97 19.05Q161.75 19.63 162.01 20.2Q162.26 20.76 162.84 20.98Q163.42 21.2 163.99 20.95Q164.56 20.69 164.78 20.11ZM128.74 16.66Q126.05 16.66 123.87 17.39Q123.28 17.59 123 18.14Q122.73 18.7 122.93 19.29Q123.12 19.88 123.68 20.16Q124.24 20.43 124.82 20.23Q126.54 19.66 128.74 19.66Q129.68 19.66 130.6 19.76Q131.72 19.89 132.83 20.17Q133.43 20.32 133.96 20Q134.5 19.68 134.65 19.08Q134.8 18.48 134.48 17.95Q134.16 17.41 133.56 17.26Q132.28 16.93 130.97 16.79Q129.87 16.66 128.74 16.66ZM148.33 28.5Q145.5 24.35 142.01 21.56Q141.53 21.18 140.91 21.25Q140.29 21.32 139.9 21.8Q139.52 22.29 139.59 22.9Q139.66 23.52 140.14 23.91Q143.28 26.41 145.86 30.19Q146.21 30.7 146.82 30.82Q147.43 30.93 147.94 30.58Q148.45 30.23 148.57 29.62Q148.68 29.01 148.33 28.5ZM116.75 26.21Q116.24 29.88 117.81 33.85Q118.04 34.42 118.61 34.67Q119.18 34.91 119.76 34.68Q120.34 34.46 120.58 33.88Q120.83 33.31 120.6 32.74Q119.22 29.26 119.8 26.15Q119.89 25.66 120.03 25.18Q120.2 24.59 119.9 24.04Q119.6 23.5 119.01 23.32Q118.41 23.15 117.86 23.45Q117.32 23.75 117.15 24.34Q116.88 25.27 116.75 26.21ZM155.89 34.19Q158.82 31.35 161.12 27.63Q161.45 27.1 161.3 26.49Q161.16 25.89 160.63 25.56Q160.1 25.24 159.5 25.38Q158.89 25.52 158.57 26.05Q156.46 29.45 153.81 32.03Q153.36 32.47 153.35 33.09Q153.34 33.71 153.77 34.16Q154.21 34.6 154.83 34.61Q155.45 34.62 155.89 34.19ZM155.34 45.43Q154.35 40.81 152.66 36.65Q152.42 36.07 151.85 35.83Q151.28 35.59 150.7 35.82Q150.13 36.06 149.89 36.63Q149.64 37.2 149.88 37.78Q151.47 41.7 152.41 46.06Q152.54 46.66 153.06 47Q153.58 47.34 154.19 47.21Q154.8 47.08 155.14 46.55Q155.47 46.03 155.34 45.43ZM141.1 42.04Q145.36 41.11 149.02 39.18Q149.57 38.89 149.76 38.3Q149.94 37.71 149.65 37.16Q149.36 36.61 148.77 36.42Q148.18 36.24 147.63 36.53Q144.32 38.26 140.46 39.11Q139.86 39.24 139.52 39.76Q139.18 40.29 139.32 40.89Q139.45 41.5 139.97 41.84Q140.5 42.17 141.1 42.04ZM128.62 42.73Q130.8 42.91 132.87 42.9Q133.5 42.9 133.93 42.46Q134.37 42.02 134.37 41.4Q134.37 40.78 133.92 40.34Q133.49 39.9 132.86 39.9Q130.92 39.91 128.87 39.74Q128.31 39.69 127.77 39.57Q126.53 39.29 125.38 38.61Q124.85 38.3 124.25 38.45Q123.64 38.61 123.33 39.14Q123.02 39.68 123.17 40.28Q123.33 40.88 123.86 41.2Q125.31 42.05 126.86 42.44Q127.72 42.65 128.62 42.73ZM156.66 58.17Q156.67 56.32 156.56 54.47Q156.52 53.85 156.06 53.44Q155.6 53.03 154.98 53.06Q154.36 53.1 153.94 53.56Q153.53 54.02 153.57 54.64Q153.67 56.39 153.66 58.13Q153.65 60.73 153.41 63.32L156.39 63.6Q156.65 60.88 156.66 58.17ZM5.22 69.87L10.91 63.42L16.6 56.97L2.41 54.1Q2.31 54.08 2.2 54.06L-0.25 53.57L0.54 55.94Q0.57 56.04 0.61 56.14L5.22 69.87ZM12.75 65.98Q16.74 68.93 20.87 71.74Q21.39 72.08 22 71.97Q22.61 71.85 22.96 71.34Q23.31 70.82 23.19 70.21Q23.07 69.6 22.56 69.25Q18.48 66.48 14.53 63.56Q14.03 63.19 13.41 63.29Q12.8 63.38 12.43 63.88Q12.06 64.38 12.15 64.99Q12.25 65.61 12.75 65.98ZM153.57 77.05Q154.3 74.86 154.86 72.61Q155.01 72.01 154.69 71.48Q154.37 70.94 153.77 70.79Q153.17 70.64 152.63 70.96Q152.1 71.28 151.95 71.88Q151.42 74.02 150.72 76.1Q150.32 77.31 149.78 78.47Q149.42 79.25 149 80.02Q148.69 80.56 148.86 81.16Q149.03 81.75 149.58 82.06Q150.12 82.36 150.72 82.19Q151.32 82.02 151.62 81.47Q152.11 80.59 152.53 79.67Q153.12 78.39 153.57 77.05ZM29.18 77.14Q33.48 79.82 37.76 82.24Q38.3 82.55 38.9 82.38Q39.5 82.22 39.81 81.67Q40.11 81.13 39.95 80.53Q39.78 79.94 39.24 79.63Q35.01 77.24 30.76 74.59Q30.24 74.27 29.63 74.41Q29.02 74.55 28.7 75.07Q28.37 75.6 28.51 76.21Q28.65 76.81 29.18 77.14ZM46.64 86.98Q51.23 89.3 55.74 91.27Q56.31 91.52 56.88 91.29Q57.46 91.07 57.71 90.5Q57.96 89.93 57.74 89.35Q57.51 88.77 56.94 88.52Q52.5 86.58 47.99 84.31Q47.43 84.03 46.84 84.22Q46.25 84.42 45.97 84.97Q45.69 85.53 45.89 86.12Q46.08 86.71 46.64 86.98ZM137.82 94.19Q142.29 91.86 145.64 88.86Q146.11 88.45 146.14 87.83Q146.18 87.21 145.76 86.74Q145.35 86.28 144.73 86.24Q144.11 86.21 143.64 86.62Q140.57 89.37 136.43 91.53Q135.88 91.82 135.69 92.41Q135.51 93 135.79 93.56Q136.08 94.11 136.67 94.29Q137.27 94.48 137.82 94.19ZM69.77 96.65Q71.85 97.34 74.08 97.93Q74.68 98.09 75.22 97.78Q75.76 97.47 75.92 96.87Q76.08 96.27 75.77 95.73Q75.46 95.19 74.86 95.03Q72.71 94.46 70.71 93.8Q68.39 93.05 66.05 92.19Q65.46 91.97 64.9 92.23Q64.33 92.5 64.12 93.08Q63.91 93.66 64.17 94.23Q64.43 94.79 65.01 95Q67.41 95.88 69.77 96.65ZM120.08 99.97Q124.86 99.1 129.09 97.76Q129.69 97.58 129.97 97.03Q130.26 96.47 130.07 95.88Q129.88 95.29 129.33 95Q128.78 94.72 128.19 94.9Q124.13 96.19 119.54 97.02Q118.93 97.13 118.58 97.64Q118.22 98.15 118.33 98.77Q118.44 99.38 118.95 99.73Q119.47 100.08 120.08 99.97ZM83.2 99.9Q87.72 100.67 92.4 101.07Q93.02 101.12 93.49 100.72Q93.97 100.32 94.02 99.7Q94.07 99.08 93.67 98.61Q93.27 98.13 92.65 98.08Q88.1 97.69 83.7 96.95Q83.09 96.84 82.58 97.2Q82.08 97.56 81.98 98.18Q81.87 98.79 82.23 99.29Q82.59 99.8 83.2 99.9ZM101.62 101.49Q106.35 101.52 110.9 101.16Q111.52 101.11 111.92 100.64Q112.32 100.16 112.27 99.54Q112.22 98.92 111.75 98.52Q111.28 98.12 110.66 98.17Q106.24 98.52 101.64 98.49Q101.02 98.49 100.57 98.93Q100.13 99.36 100.13 99.98Q100.12 100.61 100.56 101.05Q101 101.49 101.62 101.49Z" fill="#9D90D0" fill-opacity="1.000000" fill-rule="evenodd"/>
</svg>
