<svg width="48.000000" height="48.000000" viewBox="0 0 48 48" fill="none" xmlns="http://www.w3.org/2000/svg" xmlns:xlink="http://www.w3.org/1999/xlink">
	<desc>
			Created with Pixso.
	</desc>
	<defs/>
	<g opacity="0.000000">
		<path id="Vector" d="M0 47L0 -1L48 -1L48 47L0 47Z" fill="#FA7248" fill-opacity="1.000000" fill-rule="evenodd"/>
	</g>
	<path id="Vector" d="M14.55 33.53L32.72 18.28L32.77 29.63C32.77 29.89 32.82 30.15 32.92 30.39C33.03 30.63 33.17 30.85 33.36 31.04C33.74 31.41 34.25 31.62 34.78 31.62C35.31 31.62 35.82 31.4 36.19 31.03C36.57 30.65 36.78 30.14 36.77 29.61L36.72 13.99C36.71 13.87 36.69 13.76 36.66 13.64C36.6 13.56 36.64 13.45 36.6 13.35C36.53 13.12 36.41 12.9 36.25 12.71C36.09 12.52 35.9 12.37 35.68 12.25C35.62 12.17 35.5 12.19 35.41 12.14C35.3 12.09 35.19 12.06 35.08 12.03L19.7 9.26C19.41 9.21 19.11 9.22 18.83 9.3C18.55 9.37 18.28 9.51 18.06 9.7C17.7 10 17.46 10.42 17.37 10.87C17.33 11.13 17.33 11.4 17.39 11.66C17.44 11.91 17.55 12.16 17.7 12.37C17.85 12.59 18.04 12.77 18.26 12.92C18.48 13.06 18.73 13.16 18.99 13.2L30.15 15.22L11.98 30.46C11.58 30.8 11.32 31.29 11.28 31.82C11.23 32.35 11.4 32.87 11.74 33.28C12.08 33.69 12.57 33.94 13.09 33.99C13.62 34.03 14.15 33.87 14.55 33.53Z" fill="#FA7248" fill-opacity="1.000000" fill-rule="nonzero"/>
</svg>
