<svg width="32.000000" height="32.000000" viewBox="0 0 32 32" fill="none" xmlns="http://www.w3.org/2000/svg" xmlns:xlink="http://www.w3.org/1999/xlink">
	<desc>
			Created with Pixso.
	</desc>
	<defs/>
	<g opacity="0.000000">
		<path id="Vector" d="M0 32L0 0L32 0L32 32L0 32Z" fill="#F7F7F7" fill-opacity="1.000000" fill-rule="evenodd"/>
	</g>
	<path id="Vector" d="M9.7 23.02L21.82 12.85L21.84 20.42C21.84 20.59 21.88 20.76 21.95 20.93C22.02 21.09 22.11 21.23 22.24 21.36C22.49 21.61 22.83 21.75 23.18 21.74C23.54 21.74 23.88 21.6 24.13 21.35C24.38 21.1 24.51 20.76 24.51 20.4L24.48 9.99C24.47 9.91 24.46 9.83 24.44 9.76C24.4 9.71 24.42 9.63 24.4 9.57C24.35 9.41 24.27 9.27 24.16 9.14C24.06 9.01 23.93 8.91 23.78 8.83C23.74 8.78 23.66 8.79 23.6 8.76C23.53 8.73 23.46 8.7 23.38 8.68L13.13 6.84C12.94 6.8 12.74 6.81 12.55 6.86C12.36 6.91 12.19 7.01 12.04 7.13C11.8 7.33 11.64 7.61 11.58 7.91C11.55 8.09 11.55 8.26 11.59 8.44C11.63 8.61 11.7 8.77 11.8 8.91C11.9 9.06 12.02 9.18 12.17 9.28C12.32 9.37 12.48 9.44 12.66 9.47L20.1 10.81L7.99 20.97C7.72 21.2 7.55 21.53 7.52 21.88C7.49 22.23 7.59 22.58 7.82 22.85C8.05 23.12 8.38 23.29 8.73 23.32C9.08 23.35 9.43 23.24 9.7 23.02Z" fill="#F7F7F7" fill-opacity="1.000000" fill-rule="nonzero"/>
</svg>
