<svg width="201.007812" height="116.162415" viewBox="0 0 201.008 116.162" fill="none" xmlns="http://www.w3.org/2000/svg" xmlns:xlink="http://www.w3.org/1999/xlink">
	<desc>
			Created with Pixso.
	</desc>
	<defs/>
	<path id="illustration (arrow)" d="M130.768 3Q135.225 3.00385 139.396 3.45996Q140.014 3.52753 140.498 3.13855Q140.982 2.74957 141.051 2.1319Q141.119 1.51428 140.729 1.02979Q140.34 0.545288 139.723 0.477722Q135.391 0.00396729 130.77 0Q130.148 -0.000549316 129.709 0.438416Q129.27 0.87738 129.27 1.49866Q129.268 2.12 129.707 2.55969Q130.146 2.99945 130.768 3ZM113.51 4.56165Q117.865 3.79089 122.156 3.39819Q122.775 3.34155 123.172 2.86401Q123.57 2.38647 123.514 1.76776Q123.457 1.14899 122.979 0.751526Q122.502 0.354065 121.883 0.410706Q117.467 0.81488 112.988 1.60754Q112.375 1.71582 112.02 2.22498Q111.664 2.73419 111.771 3.34601Q111.881 3.95782 112.389 4.31384Q112.898 4.66992 113.51 4.56165ZM147.873 4.93591Q152.201 5.99921 155.975 7.62469Q156.545 7.87048 157.123 7.64081Q157.701 7.41113 157.945 6.84052Q158.191 6.2699 157.963 5.69257Q157.732 5.11523 157.162 4.86945Q153.16 3.14526 148.588 2.02252Q147.984 1.87433 147.453 2.19617Q146.922 2.51807 146.773 3.12146Q146.625 3.72485 146.947 4.25629Q147.27 4.78772 147.873 4.93591ZM96.6738 8.95215Q100.75 7.52997 104.992 6.42383Q105.594 6.26709 105.908 5.73114Q106.223 5.19519 106.064 4.59393Q105.908 3.99274 105.373 3.67841Q104.836 3.36414 104.234 3.52087Q99.875 4.65759 95.6855 6.11969Q95.0996 6.3244 94.8301 6.88397Q94.5586 7.44354 94.7637 8.03021Q94.9688 8.61682 95.5273 8.88684Q96.0879 9.15686 96.6738 8.95215ZM163.365 11.7305Q166.889 14.2197 169.586 17.3663Q169.99 17.838 170.609 17.8855Q171.23 17.9331 171.701 17.5286Q172.174 17.1242 172.221 16.5047Q172.268 15.8852 171.863 15.4135Q168.924 11.9844 165.098 9.28046Q164.59 8.92188 163.977 9.02716Q163.365 9.13239 163.006 9.63983Q162.648 10.1472 162.752 10.7596Q162.857 11.3719 163.365 11.7305ZM84.7793 13.9987Q86.625 13.0579 88.5703 12.1794Q89.1367 11.9238 89.3555 11.3427Q89.5762 10.7615 89.3203 10.1952Q89.0645 9.62885 88.4844 9.40918Q87.9023 9.18945 87.3359 9.44507Q85.3242 10.3529 83.416 11.3261Q81.5059 12.3005 79.6367 13.3057Q79.0898 13.6001 78.9121 14.1952Q78.7324 14.7903 79.0273 15.3374Q79.3223 15.8846 79.916 16.0633Q80.5117 16.242 81.0586 15.9476Q82.8984 14.958 84.7793 13.9987ZM67.0723 24.3138Q70.4453 22.0729 73.9941 19.9531Q74.5273 19.6344 74.6797 19.032Q74.832 18.4295 74.5137 17.8961Q74.1934 17.3627 73.5918 17.2108Q72.9902 17.0589 72.4551 17.3775Q68.8457 19.5343 65.4121 21.8152Q64.8945 22.1591 64.7715 22.7682Q64.6504 23.3772 64.9941 23.8947Q65.3379 24.4122 65.9473 24.535Q66.5547 24.6577 67.0723 24.3138ZM174.166 24.3525Q175.957 28.0292 176.939 32.2826Q177.08 32.888 177.607 33.2172Q178.133 33.5464 178.738 33.4065Q179.344 33.2667 179.674 32.7397Q180.002 32.2128 179.863 31.6074Q178.803 27.0215 176.861 23.0381Q176.59 22.4796 176.002 22.2771Q175.414 22.0747 174.855 22.3469Q174.297 22.6191 174.096 23.2066Q173.893 23.794 174.166 24.3525ZM54.0098 33.9951Q57.1543 31.3943 60.498 28.9226Q60.9961 28.5532 61.0898 27.9388Q61.1816 27.3243 60.8125 26.8247Q60.4434 26.3251 59.8281 26.233Q59.2129 26.1409 58.7148 26.5103Q55.3047 29.0306 52.0977 31.6833Q51.6191 32.0793 51.5605 32.6978Q51.502 33.3164 51.8984 33.7952Q52.293 34.274 52.9121 34.3325Q53.5312 34.3911 54.0098 33.9951ZM42.1602 44.9873Q44.9336 42.0932 47.9199 39.326Q48.375 38.9037 48.3984 38.2828Q48.4219 37.6619 48 37.2062Q47.5781 36.7505 46.957 36.7269Q46.3359 36.7034 45.8789 37.1257Q42.8301 39.9532 39.9941 42.9113Q39.5645 43.3599 39.5762 43.981Q39.5898 44.6022 40.0391 45.0322Q40.4863 45.4621 41.1074 45.449Q41.7285 45.4358 42.1602 44.9873ZM177.801 48.8722Q177.746 49.2884 177.682 49.7034Q177.588 50.3175 177.955 50.8184Q178.324 51.3192 178.938 51.4135Q179.551 51.5076 180.053 51.14Q180.553 50.7723 180.648 50.1582Q180.723 49.6749 180.783 49.19Q181.039 47.2107 181.098 45.2061Q181.166 42.8234 181.061 40.551Q181.031 39.9304 180.572 39.512Q180.111 39.0937 179.492 39.1228Q178.871 39.1518 178.453 39.6112Q178.035 40.0706 178.062 40.6913Q178.164 42.8498 178.098 45.1187Q178.043 47.0077 177.801 48.8722ZM146.721 48.1573Q148.957 47.9735 151.15 48.0363Q151.771 48.054 152.225 47.6275Q152.676 47.2009 152.693 46.5798Q152.711 45.9587 152.285 45.507Q151.857 45.0553 151.236 45.0375Q148.877 44.9699 146.475 45.1674Q144.184 45.3557 141.732 45.9136Q141.127 46.0515 140.795 46.5774Q140.465 47.1032 140.602 47.7091Q140.74 48.3149 141.266 48.6458Q141.791 48.9767 142.398 48.8389Q144.643 48.3282 146.721 48.1573ZM159.764 49.2782Q163.938 50.3833 167.918 52.4551Q168.469 52.7419 169.062 52.555Q169.654 52.368 169.941 51.8168Q170.229 51.2657 170.041 50.6731Q169.854 50.0806 169.303 49.7938Q165.025 47.5685 160.531 46.3782Q159.93 46.2191 159.393 46.5314Q158.855 46.8436 158.697 47.4442Q158.537 48.0449 158.85 48.582Q159.162 49.1192 159.764 49.2782ZM31.6406 57.4362Q34.043 54.1903 36.6816 51.0691Q37.082 50.5946 37.0312 49.9754Q36.9785 49.3563 36.5039 48.9552Q36.0293 48.5542 35.4102 48.6061Q34.791 48.6581 34.3906 49.1326Q31.6895 52.3277 29.2305 55.6514Q28.8594 56.1508 28.9512 56.7653Q29.043 57.3798 29.543 57.7494Q30.043 58.1191 30.6562 58.0273Q31.2715 57.9356 31.6406 57.4362ZM127.682 58.4226Q129.273 54.8769 133.617 52.2566Q134.148 51.9357 134.299 51.3326Q134.447 50.7294 134.127 50.1974Q133.805 49.6654 133.203 49.5161Q132.6 49.3669 132.066 49.6878Q126.92 52.7925 124.943 57.1937Q124.689 57.7605 124.91 58.3412Q125.131 58.922 125.697 59.1765Q126.266 59.431 126.846 59.2102Q127.426 58.9894 127.682 58.4226ZM178.004 59.5427Q179.969 61.3107 181.859 63.3405Q182.283 63.7951 182.904 63.8171Q183.525 63.8391 183.979 63.4156Q184.434 62.9921 184.455 62.3712Q184.479 61.7503 184.055 61.2956Q180.736 57.733 177.188 54.9286Q176.699 54.5435 176.082 54.6158Q175.465 54.6881 175.08 55.1757Q174.695 55.6631 174.768 56.2802Q174.84 56.8973 175.326 57.2825Q175.633 57.5251 175.939 57.7734Q175.404 58.0118 175.176 58.5575Q174.582 59.9659 173.879 61.3182Q172.469 64.0369 170.621 66.5289Q170.252 67.028 170.342 67.6426Q170.434 68.2572 170.934 68.6272Q171.432 68.9973 172.047 68.906Q172.662 68.8148 173.031 68.3156Q174.986 65.6784 176.488 62.8042Q177.277 61.2961 177.939 59.7226Q177.979 59.6327 178.004 59.5427ZM22.916 71.0342Q24.8535 67.5085 27.0469 64.0922Q27.3828 63.5693 27.25 62.9623Q27.1172 62.3552 26.5957 62.0195Q26.0723 61.6838 25.4648 61.8161Q24.8574 61.9484 24.5215 62.4713Q22.2734 65.9738 20.2871 69.5893Q19.9863 70.1338 20.1602 70.7304Q20.334 71.327 20.8789 71.6263Q21.4219 71.9255 22.0195 71.7521Q22.6152 71.5787 22.916 71.0342ZM129.398 70.9152Q128.133 68.7136 127.484 66.6707Q127.295 66.0787 126.742 65.7933Q126.191 65.5079 125.6 65.6963Q125.008 65.8847 124.723 66.4366Q124.436 66.9885 124.625 67.5805Q125.373 69.9295 126.797 72.4096Q128.109 74.6945 129.744 76.5443Q130.154 77.0099 130.775 77.0483Q131.395 77.0867 131.861 76.6754Q132.326 76.264 132.365 75.6439Q132.404 75.0237 131.992 74.5581Q130.559 72.9362 129.398 70.9152ZM187.543 70.2748Q190.131 73.8417 192.445 77.8374Q192.756 78.3751 193.355 78.5352Q193.957 78.6952 194.494 78.3839Q195.031 78.0726 195.191 77.4723Q195.352 76.8719 195.041 76.3342Q192.65 72.205 189.973 68.5132Q189.607 68.0103 188.994 67.9127Q188.379 67.815 187.877 68.1799Q187.375 68.5447 187.277 69.1583Q187.18 69.7719 187.543 70.2748ZM164.311 73.2111Q160.66 76.2469 156.578 78.1195Q156.014 78.3786 155.797 78.9611Q155.58 79.5436 155.84 80.1083Q156.1 80.6731 156.682 80.8892Q157.264 81.1053 157.828 80.8462Q162.271 78.8079 166.229 75.5179Q166.707 75.1207 166.764 74.502Q166.82 73.8832 166.424 73.4055Q166.025 72.9277 165.406 72.8708Q164.789 72.8138 164.311 73.2111ZM16.1367 85.7455Q17.5586 81.9644 19.2695 78.2554Q19.5293 77.6912 19.3145 77.1082Q19.0996 76.5252 18.5352 76.2649Q17.9707 76.0046 17.3887 76.2195Q16.8047 76.4343 16.5449 76.9985Q14.7891 80.8065 13.3281 84.6896Q13.1094 85.2712 13.3652 85.837Q13.623 86.4029 14.2051 86.6216Q14.7852 86.8402 15.3516 86.5836Q15.918 86.327 16.1367 85.7455ZM139.492 79.6424Q139.33 79.5868 139.172 79.5281Q138.588 79.3135 138.023 79.5741Q137.461 79.8347 137.246 80.4178Q137.031 81.0009 137.291 81.565Q137.553 82.129 138.135 82.3435Q138.586 82.5093 139.043 82.6542Q143.328 84.0121 148.195 83.5329Q148.814 83.472 149.209 82.9917Q149.604 82.5114 149.543 81.8931Q149.48 81.2748 149 80.8806Q148.521 80.4865 147.902 80.5473Q143.387 80.992 139.492 79.6424ZM196.621 85.9363Q197.678 88.2661 198.188 89.6736L201.008 88.6509Q200.457 87.1335 199.354 84.6972Q199.096 84.1313 198.514 83.9127Q197.934 83.6941 197.367 83.9507Q196.801 84.2073 196.582 84.7889Q196.363 85.3705 196.621 85.9363ZM11.6172 101.27Q12.4121 97.4058 13.5566 93.4815Q13.7305 92.885 13.4316 92.3403Q13.1328 91.7956 12.5352 91.6217Q11.9395 91.4479 11.3945 91.7468Q10.8496 92.0457 10.6758 92.6422Q9.48438 96.7321 8.66016 100.763Q8.60547 101.025 8.63867 101.27L8.59766 101.27L0 101.27L7.24023 113.811Q7.28516 113.904 7.34375 113.99L8.59766 116.162L9.85156 113.99Q9.91016 113.904 9.95508 113.811L17.1953 101.27L11.6172 101.27Z" fill="#FFAF99" fill-opacity="1.000000" fill-rule="evenodd"/>
</svg>
