<svg width="182.000000" height="157.000000" viewBox="0 0 182 157" fill="none" xmlns="http://www.w3.org/2000/svg" xmlns:xlink="http://www.w3.org/1999/xlink">
	<desc>
			Created with Pixso.
	</desc>
	<defs/>
	<path id="illustration (arrow)" d="M167.16 10.3Q166.95 10.46 166.68 10.54Q162.7 11.77 158.73 13.25Q158.15 13.46 157.58 13.21Q157.02 12.95 156.8 12.37Q156.58 11.78 156.84 11.22Q157.1 10.65 157.68 10.44Q161.73 8.93 165.8 7.67Q166.27 7.53 166.72 7.68L165.34 -0.5L178.91 4.55Q179.01 4.58 179.1 4.62L181.45 5.49L179.52 7.09Q179.44 7.17 179.36 7.22L168.2 16.46L167.16 10.3ZM149.93 13.57Q145.85 15.36 141.95 17.36Q141.39 17.64 141.2 18.23Q141.02 18.83 141.3 19.38Q141.58 19.93 142.17 20.12Q142.76 20.31 143.32 20.03Q147.14 18.07 151.13 16.32Q151.7 16.07 151.93 15.5Q152.16 14.92 151.91 14.35Q151.66 13.78 151.08 13.55Q150.5 13.33 149.93 13.57ZM134.39 21.53Q130.66 23.75 127.16 26.16Q126.65 26.51 126.53 27.12Q126.42 27.73 126.77 28.24Q127.13 28.75 127.74 28.87Q128.35 28.98 128.86 28.63Q132.28 26.28 135.93 24.11Q136.46 23.79 136.61 23.19Q136.77 22.59 136.45 22.05Q136.13 21.52 135.53 21.37Q134.93 21.21 134.39 21.53ZM120.25 31.27Q116.85 33.98 113.74 36.88Q113.28 37.31 113.26 37.93Q113.24 38.55 113.66 39Q114.08 39.46 114.7 39.48Q115.32 39.5 115.78 39.08Q118.81 36.26 122.12 33.62Q122.61 33.23 122.68 32.61Q122.75 31.99 122.36 31.51Q121.97 31.02 121.36 30.95Q120.74 30.88 120.25 31.27ZM107.67 42.99Q104.73 46.2 102.12 49.59Q101.74 50.08 101.82 50.7Q101.9 51.32 102.39 51.7Q102.88 52.08 103.5 52Q104.11 51.92 104.49 51.43Q107.03 48.13 109.88 45.02Q110.3 44.56 110.27 43.94Q110.25 43.32 109.79 42.9Q109.33 42.48 108.71 42.51Q108.09 42.54 107.67 42.99ZM93.81 62.26Q93.3 63.19 92.81 64.12Q92.52 64.67 92.71 65.26Q92.9 65.86 93.45 66.14Q94 66.43 94.59 66.25Q95.18 66.06 95.47 65.51Q95.93 64.63 96.4 63.77Q97.94 60.97 99.66 58.28Q100 57.76 99.87 57.15Q99.73 56.54 99.21 56.21Q98.69 55.87 98.08 56Q97.47 56.14 97.14 56.66Q95.38 59.41 93.81 62.26ZM87.58 75.98Q86.86 77.96 86.29 79.95Q86.12 80.54 86.42 81.09Q86.72 81.63 87.31 81.81Q87.91 81.98 88.45 81.68Q89 81.38 89.17 80.78Q89.72 78.89 90.41 77.01Q91.13 75 91.95 73.05Q92.19 72.47 91.95 71.9Q91.71 71.32 91.14 71.08Q90.56 70.85 89.99 71.08Q89.41 71.32 89.18 71.89Q88.34 73.92 87.58 75.98ZM84.03 95.89Q84.03 96.04 84.03 96.2Q84.04 96.82 84.48 97.25Q84.93 97.69 85.55 97.68Q86.17 97.67 86.6 97.23Q87.04 96.79 87.03 96.16Q87.03 96.12 87.03 96.08Q87 92.24 87.54 88.4Q87.62 87.78 87.25 87.29Q86.88 86.79 86.26 86.71Q85.65 86.62 85.15 86.99Q84.65 87.37 84.57 87.98Q84.01 91.94 84.03 95.89ZM139.94 93.03Q135.98 92.16 131.5 91.92Q130.88 91.89 130.42 92.3Q129.95 92.72 129.92 93.34Q129.89 93.96 130.3 94.42Q130.72 94.88 131.34 94.91Q135.58 95.14 139.3 95.96Q139.91 96.09 140.43 95.76Q140.95 95.42 141.09 94.82Q141.22 94.21 140.88 93.69Q140.55 93.16 139.94 93.03ZM123.13 91.99Q119.16 92.24 114.86 92.9Q114.24 93 113.88 93.5Q113.51 94 113.6 94.61Q113.7 95.23 114.2 95.59Q114.7 95.96 115.31 95.87Q119.48 95.23 123.32 94.98Q123.94 94.94 124.35 94.47Q124.76 94.01 124.72 93.39Q124.68 92.77 124.21 92.36Q123.75 91.95 123.13 91.99ZM106.63 94.47Q102.71 95.35 98.56 96.53Q97.96 96.7 97.66 97.24Q97.36 97.78 97.53 98.38Q97.7 98.98 98.24 99.28Q98.78 99.58 99.38 99.41Q103.45 98.26 107.29 97.4Q107.89 97.26 108.23 96.74Q108.56 96.21 108.42 95.6Q108.28 95 107.76 94.67Q107.23 94.33 106.63 94.47ZM151.79 97.72Q150 96.61 148.03 95.7Q147.47 95.44 146.89 95.66Q146.3 95.87 146.04 96.44Q145.78 97 146 97.58Q146.21 98.17 146.78 98.43Q148.57 99.25 150.2 100.27Q151.95 101.36 153.57 102.5Q154.08 102.86 154.69 102.75Q155.3 102.64 155.66 102.14Q156.02 101.63 155.91 101.02Q155.81 100.4 155.3 100.05Q153.61 98.86 151.79 97.72ZM90.65 98.97Q86.81 100.24 82.8 101.74Q82.22 101.96 81.96 102.52Q81.7 103.09 81.92 103.67Q82.14 104.25 82.7 104.51Q83.27 104.77 83.85 104.55Q84.29 104.39 84.73 104.23Q84.73 104.31 84.75 104.4Q85.41 108.45 86.68 112.4Q86.87 112.99 87.42 113.28Q87.97 113.56 88.56 113.37Q89.16 113.18 89.44 112.63Q89.72 112.08 89.53 111.48Q88.33 107.74 87.71 103.91Q87.64 103.53 87.42 103.25Q89.54 102.5 91.6 101.81Q92.19 101.62 92.46 101.06Q92.74 100.51 92.55 99.92Q92.35 99.33 91.8 99.05Q91.24 98.77 90.65 98.97ZM75.1 104.76Q71.35 106.3 67.47 108.02Q66.91 108.27 66.68 108.85Q66.46 109.43 66.71 110Q66.96 110.57 67.54 110.79Q68.12 111.01 68.69 110.76Q72.53 109.06 76.24 107.54Q76.82 107.3 77.06 106.73Q77.3 106.16 77.06 105.58Q76.82 105.01 76.25 104.77Q75.68 104.53 75.1 104.76ZM167.24 111.24Q164.85 108.11 161.69 105.18Q161.23 104.76 160.61 104.78Q159.99 104.81 159.57 105.26Q159.14 105.72 159.17 106.34Q159.19 106.96 159.65 107.38Q162.63 110.13 164.86 113.06Q165.23 113.55 165.85 113.63Q166.47 113.72 166.96 113.34Q167.45 112.96 167.54 112.35Q167.62 111.73 167.24 111.24ZM59.97 111.45Q56.27 113.2 52.49 115.08Q51.93 115.36 51.74 115.95Q51.54 116.54 51.82 117.1Q52.1 117.65 52.68 117.85Q53.27 118.05 53.83 117.77Q57.58 115.9 61.25 114.17Q61.81 113.9 62.02 113.32Q62.23 112.73 61.96 112.17Q61.7 111.61 61.11 111.4Q60.53 111.19 59.97 111.45ZM173.87 126.48Q173.34 122.4 171.55 118.41Q171.3 117.84 170.72 117.62Q170.13 117.4 169.57 117.65Q169 117.9 168.78 118.48Q168.56 119.06 168.81 119.63Q170.42 123.22 170.9 126.87Q170.98 127.48 171.47 127.86Q171.96 128.24 172.58 128.16Q173.19 128.08 173.57 127.59Q173.95 127.09 173.87 126.48ZM89.75 120.03Q91.53 123.71 93.84 127.18Q94.18 127.7 94.79 127.82Q95.4 127.95 95.92 127.6Q96.43 127.26 96.56 126.65Q96.68 126.04 96.34 125.52Q94.14 122.22 92.44 118.72Q92.17 118.16 91.58 117.96Q91 117.76 90.44 118.03Q89.88 118.3 89.68 118.89Q89.47 119.48 89.75 120.03ZM45.15 118.84Q41.53 120.73 37.86 122.74Q37.32 123.04 37.14 123.63Q36.97 124.23 37.27 124.77Q37.57 125.32 38.16 125.49Q38.76 125.67 39.3 125.37Q42.95 123.38 46.54 121.5Q47.09 121.21 47.28 120.61Q47.46 120.02 47.17 119.47Q46.89 118.92 46.29 118.74Q45.7 118.55 45.15 118.84ZM30.59 126.8Q27.03 128.82 23.46 130.93Q22.93 131.24 22.77 131.84Q22.62 132.45 22.93 132.98Q23.25 133.52 23.85 133.67Q24.45 133.83 24.99 133.51Q28.53 131.42 32.07 129.4Q32.61 129.1 32.78 128.5Q32.94 127.9 32.64 127.36Q32.33 126.82 31.73 126.65Q31.13 126.49 30.59 126.8ZM98.81 133.73Q101.49 136.83 104.55 139.61Q105.01 140.03 105.63 140Q106.26 139.97 106.67 139.5Q107.09 139.05 107.06 138.42Q107.03 137.8 106.57 137.39Q103.64 134.73 101.08 131.77Q100.68 131.3 100.06 131.25Q99.43 131.21 98.97 131.61Q98.5 132.02 98.45 132.64Q98.41 133.26 98.81 133.73ZM172.71 138.13Q173.24 136.58 173.58 134.97Q173.7 134.36 173.36 133.84Q173.02 133.32 172.41 133.19Q171.8 133.07 171.28 133.41Q170.76 133.75 170.64 134.36Q170.35 135.73 169.91 137.04Q169.15 139.28 167.9 141.35Q167.58 141.89 167.73 142.49Q167.88 143.09 168.41 143.41Q168.95 143.73 169.55 143.58Q170.15 143.43 170.47 142.9Q171.85 140.6 172.71 138.13ZM16.48 135.13Q12.93 137.29 9.51 139.47Q8.98 139.8 8.84 140.41Q8.71 141.01 9.04 141.54Q9.38 142.06 9.98 142.2Q10.59 142.33 11.11 142Q14.52 139.84 18.04 137.68Q18.57 137.36 18.72 136.76Q18.86 136.15 18.54 135.62Q18.22 135.09 17.61 134.95Q17.01 134.8 16.48 135.13ZM110.96 144.76Q114.33 147.15 117.92 149.1Q118.47 149.39 119.06 149.22Q119.66 149.04 119.96 148.5Q120.25 147.95 120.08 147.35Q119.9 146.76 119.35 146.46Q115.92 144.6 112.7 142.31Q112.19 141.95 111.58 142.06Q110.97 142.16 110.61 142.67Q110.25 143.18 110.35 143.79Q110.46 144.4 110.96 144.76ZM2.33 144.12Q0.27 145.48 -0.86 146.26L0.85 148.73Q1.95 147.97 3.99 146.62Q4.5 146.27 4.63 145.66Q4.75 145.06 4.41 144.54Q4.07 144.02 3.46 143.9Q2.85 143.77 2.33 144.12ZM163.04 150.94Q164.06 150.2 165.01 149.38Q165.48 148.97 165.52 148.35Q165.57 147.73 165.16 147.26Q164.76 146.79 164.14 146.75Q163.52 146.7 163.05 147.11Q162.26 147.79 161.43 148.4Q159.22 150.02 156.66 151.16Q156.09 151.41 155.87 151.99Q155.65 152.57 155.9 153.14Q156.15 153.7 156.73 153.93Q157.31 154.15 157.88 153.9Q160.64 152.67 163.04 150.94ZM125.42 152.57Q129.3 154.08 133.23 155.01Q133.84 155.16 134.36 154.83Q134.89 154.5 135.04 153.9Q135.18 153.3 134.85 152.77Q134.53 152.24 133.92 152.09Q130.19 151.2 126.5 149.77Q125.92 149.55 125.35 149.8Q124.78 150.05 124.56 150.63Q124.33 151.21 124.59 151.78Q124.84 152.35 125.42 152.57ZM145.5 156.5Q147.67 156.5 149.79 156.2Q150.41 156.11 150.78 155.62Q151.16 155.12 151.07 154.51Q150.99 153.89 150.49 153.52Q150 153.14 149.38 153.23Q147.46 153.5 145.5 153.5Q143.58 153.5 141.62 153.33Q141 153.28 140.53 153.68Q140.05 154.09 140 154.71Q139.95 155.32 140.35 155.8Q140.75 156.27 141.37 156.32Q143.45 156.5 145.5 156.5Z" fill="#FFAF99" fill-opacity="1.000000" fill-rule="evenodd"/>
</svg>
