<svg width="459.000000" height="456.000000" viewBox="0 0 459 456" fill="none" xmlns="http://www.w3.org/2000/svg" xmlns:xlink="http://www.w3.org/1999/xlink">
	<desc>
			Created with Pixso.
	</desc>
	<defs>
		<radialGradient id="paint_radial_206_4787_0" cx="0.000000" cy="0.000000" r="1.000000" gradientUnits="userSpaceOnUse" gradientTransform="translate(432.404 154.303) rotate(-140.8) scale(26.5652 26.5652)">
			<stop stop-color="#D2BEFF"/>
			<stop offset="0.249068" stop-color="#CDB5F9" stop-opacity="0.678431"/>
			<stop offset="0.540746" stop-color="#C7A9F3" stop-opacity="0.321569"/>
			<stop offset="0.749088" stop-color="#C4ABE9" stop-opacity="0.000000"/>
		</radialGradient>
		<radialGradient id="paint_radial_206_4788_0" cx="0.000000" cy="0.000000" r="1.000000" gradientUnits="userSpaceOnUse" gradientTransform="translate(285.71 303.363) rotate(-140.8) scale(26.5653 26.5652)">
			<stop stop-color="#D2BEFF"/>
			<stop offset="0.249068" stop-color="#CDB5F9" stop-opacity="0.678431"/>
			<stop offset="0.540746" stop-color="#C7A9F3" stop-opacity="0.321569"/>
			<stop offset="0.749088" stop-color="#C4ABE9" stop-opacity="0.000000"/>
		</radialGradient>
		<radialGradient id="paint_radial_206_4789_0" cx="0.000000" cy="0.000000" r="1.000000" gradientUnits="userSpaceOnUse" gradientTransform="translate(152.029 188.611) rotate(-140.8) scale(26.5652 26.5652)">
			<stop stop-color="#D2BEFF"/>
			<stop offset="0.249068" stop-color="#CDB5F9" stop-opacity="0.678431"/>
			<stop offset="0.540746" stop-color="#C7A9F3" stop-opacity="0.321569"/>
			<stop offset="0.749088" stop-color="#C4ABE9" stop-opacity="0.000000"/>
		</radialGradient>
		<radialGradient id="paint_radial_206_4790_0" cx="0.000000" cy="0.000000" r="1.000000" gradientUnits="userSpaceOnUse" gradientTransform="translate(46.7396 92.7858) rotate(-140.8) scale(26.5652 26.5652)">
			<stop stop-color="#D2BEFF"/>
			<stop offset="0.249068" stop-color="#CDB5F9" stop-opacity="0.678431"/>
			<stop offset="0.540746" stop-color="#C7A9F3" stop-opacity="0.321569"/>
			<stop offset="0.749088" stop-color="#C4ABE9" stop-opacity="0.000000"/>
		</radialGradient>
		<radialGradient id="paint_radial_206_4791_0" cx="0.000000" cy="0.000000" r="1.000000" gradientUnits="userSpaceOnUse" gradientTransform="translate(307.003 147.205) rotate(-140.8) scale(26.5653 26.5652)">
			<stop stop-color="#D2BEFF"/>
			<stop offset="0.249068" stop-color="#CDB5F9" stop-opacity="0.678431"/>
			<stop offset="0.540746" stop-color="#C7A9F3" stop-opacity="0.321569"/>
			<stop offset="0.749088" stop-color="#C4ABE9" stop-opacity="0.000000"/>
		</radialGradient>
		<radialGradient id="paint_radial_206_4792_0" cx="0.000000" cy="0.000000" r="1.000000" gradientUnits="userSpaceOnUse" gradientTransform="translate(353.142 60.8444) rotate(-140.8) scale(26.5652 26.5652)">
			<stop stop-color="#D2BEFF"/>
			<stop offset="0.249068" stop-color="#CDB5F9" stop-opacity="0.678431"/>
			<stop offset="0.540746" stop-color="#C7A9F3" stop-opacity="0.321569"/>
			<stop offset="0.749088" stop-color="#C4ABE9" stop-opacity="0.000000"/>
		</radialGradient>
	</defs>
	<path id="Vector" d="M325.2 358.65L302.53 375.09L302.53 446.11" stroke="#9D90D0" stroke-opacity="1.000000" stroke-width="1.000000"/>
	<path id="Vector" d="M326.42 350.99C323.93 352.79 323.41 356.22 325.2 358.65C327 361.14 330.43 361.67 332.86 359.87C335.35 358.07 335.88 354.64 334.08 352.21C332.34 349.78 328.9 349.19 326.42 350.99ZM332.12 358.87C330.22 360.24 327.58 359.82 326.26 357.91C324.88 356.01 325.31 353.37 327.21 352.05C329.11 350.67 331.76 351.1 333.08 353C334.45 354.85 334.03 357.49 332.12 358.87Z" fill="#9D90D0" fill-opacity="1.000000" fill-rule="nonzero"/>
	<path id="Vector" d="M326.42 350.99C323.93 352.79 323.41 356.22 325.2 358.65C327 361.14 330.43 361.67 332.86 359.87C335.35 358.07 335.88 354.64 334.08 352.21C332.34 349.78 328.9 349.19 326.42 350.99ZM332.12 358.87C330.22 360.24 327.58 359.82 326.26 357.91C324.88 356.01 325.31 353.37 327.21 352.05C329.11 350.67 331.76 351.1 333.08 353C334.45 354.85 334.03 357.49 332.12 358.87Z" fill="#9D90D0" fill-opacity="1.000000" fill-rule="evenodd"/>
	<path id="Vector" d="M297.04 450.34C297.04 447.33 299.52 444.84 302.53 444.84C305.54 444.84 308.03 447.33 308.03 450.34C308.03 453.35 305.54 455.84 302.53 455.84C299.52 455.84 297.04 453.35 297.04 450.34ZM306.76 450.34C306.76 448.01 304.86 446.11 302.53 446.11C300.21 446.11 298.3 448.01 298.3 450.34C298.3 452.66 300.21 454.57 302.53 454.57C304.86 454.51 306.76 452.66 306.76 450.34Z" fill="#9D90D0" fill-opacity="1.000000" fill-rule="nonzero"/>
	<path id="Vector" d="M297.04 450.34C297.04 447.33 299.52 444.84 302.53 444.84C305.54 444.84 308.03 447.33 308.03 450.34C308.03 453.35 305.54 455.84 302.53 455.84C299.52 455.84 297.04 453.35 297.04 450.34ZM306.76 450.34C306.76 448.01 304.86 446.11 302.53 446.11C300.21 446.11 298.3 448.01 298.3 450.34C298.3 452.66 300.21 454.57 302.53 454.57C304.86 454.51 306.76 452.66 306.76 450.34Z" fill="#9D90D0" fill-opacity="1.000000" fill-rule="evenodd"/>
	<path id="Vector" d="M257.03 364.04L257.03 322.88" stroke="#9D90D0" stroke-opacity="1.000000" stroke-width="1.000000"/>
	<path id="Vector" d="M262.53 368.22C262.53 365.21 260.05 362.72 257.03 362.72C254.02 362.72 251.54 365.21 251.54 368.22C251.54 371.23 254.02 373.71 257.03 373.71C260.05 373.71 262.53 371.28 262.53 368.22ZM252.81 368.22C252.81 365.89 254.71 363.99 257.03 363.99C259.36 363.99 261.26 365.89 261.26 368.22C261.26 370.54 259.36 372.45 257.03 372.45C254.71 372.45 252.81 370.54 252.81 368.22Z" fill="#9D90D0" fill-opacity="1.000000" fill-rule="nonzero"/>
	<path id="Vector" d="M262.53 368.22C262.53 365.21 260.05 362.72 257.03 362.72C254.02 362.72 251.54 365.21 251.54 368.22C251.54 371.23 254.02 373.71 257.03 373.71C260.05 373.71 262.53 371.28 262.53 368.22ZM252.81 368.22C252.81 365.89 254.71 363.99 257.03 363.99C259.36 363.99 261.26 365.89 261.26 368.22C261.26 370.54 259.36 372.45 257.03 372.45C254.71 372.45 252.81 370.54 252.81 368.22Z" fill="#9D90D0" fill-opacity="1.000000" fill-rule="evenodd"/>
	<path id="Vector" d="M262.53 318.65C262.53 321.66 260.05 324.15 257.03 324.15C254.02 324.15 251.54 321.66 251.54 318.65C251.54 315.64 254.02 313.15 257.03 313.15C260.05 313.15 262.53 315.58 262.53 318.65ZM252.81 318.65C252.81 320.97 254.71 322.88 257.03 322.88C259.36 322.88 261.26 320.97 261.26 318.65C261.26 316.32 259.36 314.42 257.03 314.42C254.71 314.42 252.81 316.32 252.81 318.65Z" fill="#9D90D0" fill-opacity="1.000000" fill-rule="nonzero"/>
	<path id="Vector" d="M262.53 318.65C262.53 321.66 260.05 324.15 257.03 324.15C254.02 324.15 251.54 321.66 251.54 318.65C251.54 315.64 254.02 313.15 257.03 313.15C260.05 313.15 262.53 315.58 262.53 318.65ZM252.81 318.65C252.81 320.97 254.71 322.88 257.03 322.88C259.36 322.88 261.26 320.97 261.26 318.65C261.26 316.32 259.36 314.42 257.03 314.42C254.71 314.42 252.81 316.32 252.81 318.65Z" fill="#9D90D0" fill-opacity="1.000000" fill-rule="evenodd"/>
	<path id="Vector" d="M338.52 293.5L287.15 332.6L287.15 402.62" stroke="#9D90D0" stroke-opacity="1.000000" stroke-width="1.000000"/>
	<path id="Vector" d="M338.52 286.57C336.09 288.42 335.66 291.86 337.46 294.29C339.31 296.72 342.75 297.14 345.18 295.34C347.61 293.5 348.03 290.06 346.23 287.63C344.38 285.2 340.9 284.72 338.52 286.57ZM344.38 294.29C342.53 295.71 339.89 295.34 338.46 293.5C337.04 291.65 337.41 289 339.26 287.58C341.11 286.15 343.75 286.52 345.18 288.37C346.6 290.22 346.23 292.86 344.38 294.29Z" fill="#9D90D0" fill-opacity="1.000000" fill-rule="nonzero"/>
	<path id="Vector" d="M338.52 286.57C336.09 288.42 335.66 291.86 337.46 294.29C339.31 296.72 342.75 297.14 345.18 295.34C347.61 293.5 348.03 290.06 346.23 287.63C344.38 285.2 340.9 284.72 338.52 286.57ZM344.38 294.29C342.53 295.71 339.89 295.34 338.46 293.5C337.04 291.65 337.41 289 339.26 287.58C341.11 286.15 343.75 286.52 345.18 288.37C346.6 290.22 346.23 292.86 344.38 294.29Z" fill="#9D90D0" fill-opacity="1.000000" fill-rule="evenodd"/>
	<path id="Vector" d="M281.66 408.12C281.66 405.1 284.14 402.62 287.15 402.62C290.17 402.62 292.65 405.1 292.65 408.12C292.65 411.13 290.17 413.61 287.15 413.61C284.14 413.61 281.66 411.13 281.66 408.12ZM291.38 408.12C291.38 405.79 289.48 403.89 287.15 403.89C284.83 403.89 282.93 405.79 282.93 408.12C282.93 410.44 284.83 412.34 287.15 412.34C289.48 412.29 291.38 410.44 291.38 408.12Z" fill="#9D90D0" fill-opacity="1.000000" fill-rule="nonzero"/>
	<path id="Vector" d="M281.66 408.12C281.66 405.1 284.14 402.62 287.15 402.62C290.17 402.62 292.65 405.1 292.65 408.12C292.65 411.13 290.17 413.61 287.15 413.61C284.14 413.61 281.66 411.13 281.66 408.12ZM291.38 408.12C291.38 405.79 289.48 403.89 287.15 403.89C284.83 403.89 282.93 405.79 282.93 408.12C282.93 410.44 284.83 412.34 287.15 412.34C289.48 412.29 291.38 410.44 291.38 408.12Z" fill="#9D90D0" fill-opacity="1.000000" fill-rule="evenodd"/>
	<path id="Vector" d="M271.83 357.17L271.83 424.23" stroke="#9D90D0" stroke-opacity="1.000000" stroke-width="1.000000"/>
	<path id="Vector" d="M266.33 352.95C266.33 355.96 268.82 358.44 271.83 358.44C274.84 358.44 277.32 355.96 277.32 352.95C277.32 349.93 274.84 347.45 271.83 347.45C268.82 347.45 266.33 349.93 266.33 352.95ZM276.05 352.95C276.05 355.27 274.15 357.17 271.83 357.17C269.5 357.17 267.6 355.27 267.6 352.95C267.6 350.62 269.5 348.72 271.83 348.72C274.15 348.72 276.05 350.62 276.05 352.95Z" fill="#9D90D0" fill-opacity="1.000000" fill-rule="nonzero"/>
	<path id="Vector" d="M266.33 352.95C266.33 355.96 268.82 358.44 271.83 358.44C274.84 358.44 277.32 355.96 277.32 352.95C277.32 349.93 274.84 347.45 271.83 347.45C268.82 347.45 266.33 349.93 266.33 352.95ZM276.05 352.95C276.05 355.27 274.15 357.17 271.83 357.17C269.5 357.17 267.6 355.27 267.6 352.95C267.6 350.62 269.5 348.72 271.83 348.72C274.15 348.72 276.05 350.62 276.05 352.95Z" fill="#9D90D0" fill-opacity="1.000000" fill-rule="evenodd"/>
	<path id="Vector" d="M266.33 428.41C266.33 425.4 268.82 422.91 271.83 422.91C274.84 422.91 277.32 425.4 277.32 428.41C277.32 431.42 274.84 433.9 271.83 433.9C268.82 433.9 266.33 431.47 266.33 428.41ZM276.05 428.41C276.05 426.08 274.15 424.18 271.83 424.18C269.5 424.18 267.6 426.08 267.6 428.41C267.6 430.73 269.5 432.64 271.83 432.64C274.15 432.64 276.05 430.73 276.05 428.41Z" fill="#9D90D0" fill-opacity="1.000000" fill-rule="nonzero"/>
	<path id="Vector" d="M266.33 428.41C266.33 425.4 268.82 422.91 271.83 422.91C274.84 422.91 277.32 425.4 277.32 428.41C277.32 431.42 274.84 433.9 271.83 433.9C268.82 433.9 266.33 431.47 266.33 428.41ZM276.05 428.41C276.05 426.08 274.15 424.18 271.83 424.18C269.5 424.18 267.6 426.08 267.6 428.41C267.6 430.73 269.5 432.64 271.83 432.64C274.15 432.64 276.05 430.73 276.05 428.41Z" fill="#9D90D0" fill-opacity="1.000000" fill-rule="evenodd"/>
	<path id="Vector" d="M32.23 188.92L67.48 227.39L117.1 227.39L134.8 217.61L148.44 218.3" stroke="#9D90D0" stroke-opacity="1.000000" stroke-width="1.000000"/>
	<path id="Vector" d="M24.46 188.6C26.52 190.82 30.01 190.98 32.23 188.92C34.45 186.86 34.61 183.37 32.55 181.15C30.49 178.93 27 178.77 24.78 180.83C22.56 182.84 22.4 186.33 24.46 188.6ZM31.65 181.99C33.24 183.68 33.13 186.38 31.39 187.96C29.7 189.55 27 189.44 25.41 187.7C23.83 186.01 23.94 183.31 25.68 181.73C27.37 180.2 30.07 180.3 31.65 181.99Z" fill="#9D90D0" fill-opacity="1.000000" fill-rule="nonzero"/>
	<path id="Vector" d="M24.46 188.6C26.52 190.82 30.01 190.98 32.23 188.92C34.45 186.86 34.61 183.37 32.55 181.15C30.49 178.93 27 178.77 24.78 180.83C22.56 182.84 22.4 186.33 24.46 188.6ZM31.65 181.99C33.24 183.68 33.13 186.38 31.39 187.96C29.7 189.55 27 189.44 25.41 187.7C23.83 186.01 23.94 183.31 25.68 181.73C27.37 180.2 30.07 180.3 31.65 181.99Z" fill="#9D90D0" fill-opacity="1.000000" fill-rule="evenodd"/>
	<path id="Vector" d="M152.4 224.01C149.39 223.85 147.01 221.26 147.17 218.25C147.33 215.23 149.92 212.86 152.93 213.01C155.94 213.17 158.32 215.76 158.16 218.77C158 221.84 155.41 224.16 152.4 224.01ZM152.88 214.33C150.55 214.23 148.6 216.03 148.44 218.35C148.33 220.68 150.13 222.63 152.45 222.79C154.78 222.9 156.73 221.1 156.89 218.77C156.94 216.4 155.2 214.44 152.88 214.33Z" fill="#9D90D0" fill-opacity="1.000000" fill-rule="nonzero"/>
	<path id="Vector" d="M152.4 224.01C149.39 223.85 147.01 221.26 147.17 218.25C147.33 215.23 149.92 212.86 152.93 213.01C155.94 213.17 158.32 215.76 158.16 218.77C158 221.84 155.41 224.16 152.4 224.01ZM152.88 214.33C150.55 214.23 148.6 216.03 148.44 218.35C148.33 220.68 150.13 222.63 152.45 222.79C154.78 222.9 156.73 221.1 156.89 218.77C156.94 216.4 155.2 214.44 152.88 214.33Z" fill="#9D90D0" fill-opacity="1.000000" fill-rule="evenodd"/>
	<path id="Vector" d="M301.05 349.67L301.05 342.8L327.63 325.31" stroke="#9D90D0" stroke-opacity="1.000000" stroke-width="1.000000"/>
	<path id="Vector" d="M306.55 353.9C306.55 350.89 304.07 348.4 301.05 348.4C298.04 348.4 295.56 350.89 295.56 353.9C295.56 356.91 298.04 359.39 301.05 359.39C304.07 359.39 306.55 356.91 306.55 353.9ZM296.82 353.9C296.82 351.57 298.73 349.67 301.05 349.67C303.38 349.67 305.28 351.57 305.28 353.9C305.28 356.22 303.38 358.13 301.05 358.13C298.73 358.13 296.82 356.22 296.82 353.9Z" fill="#9D90D0" fill-opacity="1.000000" fill-rule="nonzero"/>
	<path id="Vector" d="M306.55 353.9C306.55 350.89 304.07 348.4 301.05 348.4C298.04 348.4 295.56 350.89 295.56 353.9C295.56 356.91 298.04 359.39 301.05 359.39C304.07 359.39 306.55 356.91 306.55 353.9ZM296.82 353.9C296.82 351.57 298.73 349.67 301.05 349.67C303.38 349.67 305.28 351.57 305.28 353.9C305.28 356.22 303.38 358.13 301.05 358.13C298.73 358.13 296.82 356.22 296.82 353.9Z" fill="#9D90D0" fill-opacity="1.000000" fill-rule="evenodd"/>
	<path id="Vector" d="M334.19 327.63C331.65 329.32 328.22 328.58 326.58 326.05C324.89 323.51 325.63 320.08 328.16 318.44C330.7 316.75 334.13 317.49 335.77 320.02C337.41 322.51 336.72 325.94 334.19 327.63ZM328.85 319.5C326.9 320.76 326.37 323.41 327.64 325.31C328.9 327.26 331.55 327.79 333.45 326.52C335.4 325.26 335.93 322.61 334.66 320.71C333.4 318.76 330.81 318.23 328.85 319.5Z" fill="#9D90D0" fill-opacity="1.000000" fill-rule="nonzero"/>
	<path id="Vector" d="M334.19 327.63C331.65 329.32 328.22 328.58 326.58 326.05C324.89 323.51 325.63 320.08 328.16 318.44C330.7 316.75 334.13 317.49 335.77 320.02C337.41 322.51 336.72 325.94 334.19 327.63ZM328.85 319.5C326.9 320.76 326.37 323.41 327.64 325.31C328.9 327.26 331.55 327.79 333.45 326.52C335.4 325.26 335.93 322.61 334.66 320.71C333.4 318.76 330.81 318.23 328.85 319.5Z" fill="#9D90D0" fill-opacity="1.000000" fill-rule="evenodd"/>
	<path id="Vector" d="M358.28 305.33L371.28 305.33L409.39 268.13L408.49 237.74" stroke="#9D90D0" stroke-opacity="1.000000" stroke-width="1.000000"/>
	<path id="Vector" d="M353.58 310.83C356.59 310.83 359.08 308.35 359.08 305.33C359.08 302.32 356.59 299.84 353.58 299.84C350.57 299.84 348.09 302.32 348.09 305.33C348.09 308.35 350.57 310.83 353.58 310.83ZM353.58 301.11C355.91 301.11 357.81 303.01 357.81 305.33C357.81 307.66 355.91 309.56 353.58 309.56C351.26 309.56 349.35 307.66 349.35 305.33C349.35 303.01 351.26 301.11 353.58 301.11Z" fill="#9D90D0" fill-opacity="1.000000" fill-rule="nonzero"/>
	<path id="Vector" d="M353.58 310.83C356.59 310.83 359.08 308.35 359.08 305.33C359.08 302.32 356.59 299.84 353.58 299.84C350.57 299.84 348.09 302.32 348.09 305.33C348.09 308.35 350.57 310.83 353.58 310.83ZM353.58 301.11C355.91 301.11 357.81 303.01 357.81 305.33C357.81 307.66 355.91 309.56 353.58 309.56C351.26 309.56 349.35 307.66 349.35 305.33C349.35 303.01 351.26 301.11 353.58 301.11Z" fill="#9D90D0" fill-opacity="1.000000" fill-rule="evenodd"/>
	<path id="Vector" d="M414.04 233.41C414.09 236.42 411.71 238.96 408.7 239.07C405.69 239.12 403.15 236.74 403.04 233.73C402.99 230.72 405.37 228.18 408.38 228.07C411.39 227.97 413.93 230.4 414.04 233.41ZM404.31 233.68C404.37 236 406.32 237.85 408.65 237.8C410.97 237.74 412.82 235.79 412.77 233.46C412.72 231.14 410.76 229.29 408.43 229.34C406.06 229.4 404.26 231.35 404.31 233.68Z" fill="#9D90D0" fill-opacity="1.000000" fill-rule="nonzero"/>
	<path id="Vector" d="M414.04 233.41C414.09 236.42 411.71 238.96 408.7 239.07C405.69 239.12 403.15 236.74 403.04 233.73C402.99 230.72 405.37 228.18 408.38 228.07C411.39 227.97 413.93 230.4 414.04 233.41ZM404.31 233.68C404.37 236 406.32 237.85 408.65 237.8C410.97 237.74 412.82 235.79 412.77 233.46C412.72 231.14 410.76 229.29 408.43 229.34C406.06 229.4 404.26 231.35 404.31 233.68Z" fill="#9D90D0" fill-opacity="1.000000" fill-rule="evenodd"/>
	<path id="Vector" d="M307.61 238.8L278.07 212.54L278.07 177.29L294.87 163.44L361.51 163.44" stroke="#9D90D0" stroke-opacity="1.000000" stroke-width="1.000000"/>
	<path id="Vector" d="M315.37 238.38C313.1 236.37 309.61 236.58 307.6 238.85C305.6 241.13 305.81 244.61 308.08 246.62C310.35 248.63 313.84 248.42 315.85 246.15C317.86 243.87 317.65 240.39 315.37 238.38ZM308.93 245.62C307.18 244.09 307.02 241.39 308.56 239.65C310.09 237.9 312.78 237.74 314.53 239.28C316.27 240.81 316.43 243.5 314.9 245.25C313.31 246.99 310.62 247.15 308.93 245.62Z" fill="#9D90D0" fill-opacity="1.000000" fill-rule="nonzero"/>
	<path id="Vector" d="M315.37 238.38C313.1 236.37 309.61 236.58 307.6 238.85C305.6 241.13 305.81 244.61 308.08 246.62C310.35 248.63 313.84 248.42 315.85 246.15C317.86 243.87 317.65 240.39 315.37 238.38ZM308.93 245.62C307.18 244.09 307.02 241.39 308.56 239.65C310.09 237.9 312.78 237.74 314.53 239.28C316.27 240.81 316.43 243.5 314.9 245.25C313.31 246.99 310.62 247.15 308.93 245.62Z" fill="#9D90D0" fill-opacity="1.000000" fill-rule="evenodd"/>
	<path id="Vector" d="M365.74 168.94C362.72 168.94 360.24 166.46 360.24 163.44C360.24 160.43 362.72 157.95 365.74 157.95C368.75 157.95 371.23 160.43 371.23 163.44C371.23 166.51 368.75 168.94 365.74 168.94ZM365.74 159.27C363.41 159.27 361.51 161.17 361.51 163.5C361.51 165.82 363.41 167.72 365.74 167.72C368.06 167.72 369.96 165.82 369.96 163.5C369.96 161.12 368.06 159.27 365.74 159.27Z" fill="#9D90D0" fill-opacity="1.000000" fill-rule="nonzero"/>
	<path id="Vector" d="M365.74 168.94C362.72 168.94 360.24 166.46 360.24 163.44C360.24 160.43 362.72 157.95 365.74 157.95C368.75 157.95 371.23 160.43 371.23 163.44C371.23 166.51 368.75 168.94 365.74 168.94ZM365.74 159.27C363.41 159.27 361.51 161.17 361.51 163.5C361.51 165.82 363.41 167.72 365.74 167.72C368.06 167.72 369.96 165.82 369.96 163.5C369.96 161.12 368.06 159.27 365.74 159.27Z" fill="#9D90D0" fill-opacity="1.000000" fill-rule="evenodd"/>
	<path id="Vector" d="M412.34 173.64L431.95 193.25L431.95 234.68" stroke="#9D90D0" stroke-opacity="1.000000" stroke-width="1.000000"/>
	<path id="Vector" d="M405.47 174.6C407.64 176.76 411.13 176.76 413.24 174.6C415.41 172.43 415.41 168.94 413.24 166.83C411.07 164.66 407.59 164.66 405.47 166.83C403.36 168.94 403.36 172.43 405.47 174.6ZM412.34 167.73C413.98 169.36 413.98 172.06 412.34 173.7C410.7 175.34 408.01 175.34 406.37 173.7C404.73 172.06 404.73 169.36 406.37 167.73C408.06 166.09 410.7 166.09 412.34 167.73Z" fill="#9D90D0" fill-opacity="1.000000" fill-rule="nonzero"/>
	<path id="Vector" d="M405.47 174.6C407.64 176.76 411.13 176.76 413.24 174.6C415.41 172.43 415.41 168.94 413.24 166.83C411.07 164.66 407.59 164.66 405.47 166.83C403.36 168.94 403.36 172.43 405.47 174.6ZM412.34 167.73C413.98 169.36 413.98 172.06 412.34 173.7C410.7 175.34 408.01 175.34 406.37 173.7C404.73 172.06 404.73 169.36 406.37 167.73C408.06 166.09 410.7 166.09 412.34 167.73Z" fill="#9D90D0" fill-opacity="1.000000" fill-rule="evenodd"/>
	<path id="Vector" d="M426.45 238.91C426.45 235.9 428.94 233.41 431.95 233.41C434.96 233.41 437.44 235.9 437.44 238.91C437.44 241.92 434.96 244.4 431.95 244.4C428.94 244.4 426.45 241.92 426.45 238.91ZM436.18 238.91C436.18 236.58 434.27 234.68 431.95 234.68C429.62 234.68 427.72 236.58 427.72 238.91C427.72 241.23 429.62 243.14 431.95 243.14C434.27 243.08 436.18 241.23 436.18 238.91Z" fill="#9D90D0" fill-opacity="1.000000" fill-rule="nonzero"/>
	<path id="Vector" d="M426.45 238.91C426.45 235.9 428.94 233.41 431.95 233.41C434.96 233.41 437.44 235.9 437.44 238.91C437.44 241.92 434.96 244.4 431.95 244.4C428.94 244.4 426.45 241.92 426.45 238.91ZM436.18 238.91C436.18 236.58 434.27 234.68 431.95 234.68C429.62 234.68 427.72 236.58 427.72 238.91C427.72 241.23 429.62 243.14 431.95 243.14C434.27 243.08 436.18 241.23 436.18 238.91Z" fill="#9D90D0" fill-opacity="1.000000" fill-rule="evenodd"/>
	<path id="Vector" d="M167.46 22.45L188.87 5.49L273.84 5.49" stroke="#9D90D0" stroke-opacity="1.000000" stroke-width="1.000000"/>
	<path id="Vector" d="M166.57 30.17C168.94 28.27 169.37 24.83 167.46 22.45C165.56 20.08 162.13 19.65 159.75 21.56C157.37 23.46 156.95 26.89 158.85 29.27C160.75 31.65 164.19 32.07 166.57 30.17ZM160.54 22.56C162.34 21.13 165.03 21.4 166.46 23.25C167.89 25.04 167.62 27.74 165.77 29.17C163.98 30.59 161.28 30.33 159.85 28.48C158.43 26.68 158.74 24.04 160.54 22.56Z" fill="#9D90D0" fill-opacity="1.000000" fill-rule="nonzero"/>
	<path id="Vector" d="M166.57 30.17C168.94 28.27 169.37 24.83 167.46 22.45C165.56 20.08 162.13 19.65 159.75 21.56C157.37 23.46 156.95 26.89 158.85 29.27C160.75 31.65 164.19 32.07 166.57 30.17ZM160.54 22.56C162.34 21.13 165.03 21.4 166.46 23.25C167.89 25.04 167.62 27.74 165.77 29.17C163.98 30.59 161.28 30.33 159.85 28.48C158.43 26.68 158.74 24.04 160.54 22.56Z" fill="#9D90D0" fill-opacity="1.000000" fill-rule="evenodd"/>
	<path id="Vector" d="M278.07 10.99C275.05 10.99 272.57 8.5 272.57 5.49C272.57 2.48 275.05 0 278.07 0C281.08 0 283.56 2.48 283.56 5.49C283.56 8.56 281.08 10.99 278.07 10.99ZM278.07 1.32C275.74 1.32 273.84 3.22 273.84 5.54C273.84 7.87 275.74 9.77 278.07 9.77C280.39 9.77 282.29 7.87 282.29 5.54C282.24 3.17 280.39 1.32 278.07 1.32Z" fill="#9D90D0" fill-opacity="1.000000" fill-rule="nonzero"/>
	<path id="Vector" d="M278.07 10.99C275.05 10.99 272.57 8.5 272.57 5.49C272.57 2.48 275.05 0 278.07 0C281.08 0 283.56 2.48 283.56 5.49C283.56 8.56 281.08 10.99 278.07 10.99ZM278.07 1.32C275.74 1.32 273.84 3.22 273.84 5.54C273.84 7.87 275.74 9.77 278.07 9.77C280.39 9.77 282.29 7.87 282.29 5.54C282.24 3.17 280.39 1.32 278.07 1.32Z" fill="#9D90D0" fill-opacity="1.000000" fill-rule="evenodd"/>
	<path id="Vector" d="M53.32 185.32L75.41 207.46" stroke="#9D90D0" stroke-opacity="1.000000" stroke-width="1.000000"/>
	<path id="Vector" d="M45.55 185.32C47.71 187.49 51.2 187.49 53.32 185.32C55.48 183.16 55.48 179.67 53.32 177.55C51.15 175.39 47.66 175.39 45.55 177.55C43.38 179.72 43.38 183.21 45.55 185.32ZM52.42 178.45C54.06 180.09 54.06 182.79 52.42 184.42C50.78 186.06 48.08 186.06 46.45 184.42C44.81 182.79 44.81 180.09 46.45 178.45C48.08 176.81 50.78 176.81 52.42 178.45Z" fill="#9D90D0" fill-opacity="1.000000" fill-rule="nonzero"/>
	<path id="Vector" d="M45.55 185.32C47.71 187.49 51.2 187.49 53.32 185.32C55.48 183.16 55.48 179.67 53.32 177.55C51.15 175.39 47.66 175.39 45.55 177.55C43.38 179.72 43.38 183.21 45.55 185.32ZM52.42 178.45C54.06 180.09 54.06 182.79 52.42 184.42C50.78 186.06 48.08 186.06 46.45 184.42C44.81 182.79 44.81 180.09 46.45 178.45C48.08 176.81 50.78 176.81 52.42 178.45Z" fill="#9D90D0" fill-opacity="1.000000" fill-rule="evenodd"/>
	<path id="Vector" d="M74.51 214.33C72.34 212.17 72.34 208.68 74.51 206.56C76.67 204.4 80.16 204.4 82.27 206.56C84.44 208.73 84.44 212.22 82.27 214.33C80.16 216.45 76.67 216.45 74.51 214.33ZM81.38 207.46C79.74 205.83 77.04 205.83 75.41 207.46C73.77 209.1 73.77 211.8 75.41 213.43C77.04 215.07 79.74 215.07 81.38 213.43C83.01 211.74 83.01 209.1 81.38 207.46Z" fill="#9D90D0" fill-opacity="1.000000" fill-rule="nonzero"/>
	<path id="Vector" d="M74.51 206.56C76.67 204.4 80.16 204.4 82.27 206.56C84.44 208.73 84.44 212.22 82.27 214.33C80.16 216.45 76.67 216.45 74.51 214.33C72.34 212.17 72.34 208.68 74.51 206.56ZM81.38 207.46C79.74 205.83 77.04 205.83 75.41 207.46C73.77 209.1 73.77 211.8 75.41 213.43C77.04 215.07 79.74 215.07 81.38 213.43C83.01 211.74 83.01 209.1 81.38 207.46Z" fill="#9D90D0" fill-opacity="1.000000" fill-rule="evenodd"/>
	<path id="Vector" d="M72.13 177.29L102.41 207.57" stroke="#9D90D0" stroke-opacity="1.000000" stroke-width="1.000000"/>
	<path id="Vector" d="M65.26 178.19C67.42 180.36 70.91 180.36 73.03 178.19C75.19 176.02 75.19 172.53 73.03 170.42C70.86 168.25 67.37 168.25 65.26 170.42C63.09 172.59 63.09 176.07 65.26 178.19ZM72.13 171.32C73.77 172.96 73.77 175.65 72.13 177.29C70.49 178.93 67.8 178.93 66.16 177.29C64.52 175.65 64.52 172.96 66.16 171.32C67.8 169.68 70.49 169.68 72.13 171.32Z" fill="#9D90D0" fill-opacity="1.000000" fill-rule="nonzero"/>
	<path id="Vector" d="M65.26 178.19C67.42 180.36 70.91 180.36 73.03 178.19C75.19 176.02 75.19 172.53 73.03 170.42C70.86 168.25 67.37 168.25 65.26 170.42C63.09 172.59 63.09 176.07 65.26 178.19ZM72.13 171.32C73.77 172.96 73.77 175.65 72.13 177.29C70.49 178.93 67.8 178.93 66.16 177.29C64.52 175.65 64.52 172.96 66.16 171.32C67.8 169.68 70.49 169.68 72.13 171.32Z" fill="#9D90D0" fill-opacity="1.000000" fill-rule="evenodd"/>
	<path id="Vector" d="M101.46 214.44C99.29 212.27 99.29 208.79 101.46 206.67C103.63 204.51 107.11 204.51 109.23 206.67C111.4 208.84 111.4 212.33 109.23 214.44C107.11 216.55 103.63 216.55 101.46 214.44ZM108.33 207.57C106.69 205.93 104 205.93 102.36 207.57C100.72 209.21 100.72 211.9 102.36 213.54C104 215.18 106.69 215.18 108.33 213.54C109.97 211.85 109.97 209.21 108.33 207.57Z" fill="#9D90D0" fill-opacity="1.000000" fill-rule="nonzero"/>
	<path id="Vector" d="M101.46 206.67C103.63 204.51 107.11 204.51 109.23 206.67C111.4 208.84 111.4 212.33 109.23 214.44C107.11 216.55 103.63 216.55 101.46 214.44C99.29 212.27 99.29 208.79 101.46 206.67ZM108.33 207.57C106.69 205.93 104 205.93 102.36 207.57C100.72 209.21 100.72 211.9 102.36 213.54C104 215.18 106.69 215.18 108.33 213.54C109.97 211.85 109.97 209.21 108.33 207.57Z" fill="#9D90D0" fill-opacity="1.000000" fill-rule="evenodd"/>
	<path id="Vector" d="M179.77 204.77L220.62 204.77L220.62 227.39L186.91 261.1" stroke="#9D90D0" stroke-opacity="1.000000" stroke-width="1.000000"/>
	<path id="Vector" d="M175.55 210.32C178.56 210.32 181.04 207.83 181.04 204.82C181.04 201.81 178.56 199.33 175.55 199.33C172.54 199.33 170.05 201.81 170.05 204.82C170.05 207.83 172.54 210.32 175.55 210.32ZM175.55 200.59C177.87 200.59 179.77 202.5 179.77 204.82C179.77 207.15 177.87 209.05 175.55 209.05C173.22 209.05 171.32 207.15 171.32 204.82C171.32 202.44 173.22 200.59 175.55 200.59Z" fill="#9D90D0" fill-opacity="1.000000" fill-rule="nonzero"/>
	<path id="Vector" d="M175.55 210.32C178.56 210.32 181.04 207.83 181.04 204.82C181.04 201.81 178.56 199.33 175.55 199.33C172.54 199.33 170.05 201.81 170.05 204.82C170.05 207.83 172.54 210.32 175.55 210.32ZM175.55 200.59C177.87 200.59 179.77 202.5 179.77 204.82C179.77 207.15 177.87 209.05 175.55 209.05C173.22 209.05 171.32 207.15 171.32 204.82C171.32 202.44 173.22 200.59 175.55 200.59Z" fill="#9D90D0" fill-opacity="1.000000" fill-rule="evenodd"/>
	<path id="Vector" d="M180.04 260.2C182.2 258.04 185.69 258.04 187.81 260.2C189.97 262.37 189.97 265.86 187.81 267.97C185.64 270.14 182.15 270.14 180.04 267.97C177.87 265.81 177.87 262.32 180.04 260.2ZM186.91 267.07C188.55 265.44 188.55 262.74 186.91 261.1C185.27 259.46 182.58 259.46 180.94 261.1C179.3 262.74 179.3 265.44 180.94 267.07C182.58 268.71 185.22 268.71 186.91 267.07Z" fill="#9D90D0" fill-opacity="1.000000" fill-rule="nonzero"/>
	<path id="Vector" d="M180.04 260.2C182.2 258.04 185.69 258.04 187.81 260.2C189.97 262.37 189.97 265.86 187.81 267.97C185.64 270.14 182.15 270.14 180.04 267.97C177.87 265.81 177.87 262.32 180.04 260.2ZM180.94 261.1C179.3 262.74 179.3 265.44 180.94 267.07C182.58 268.71 185.22 268.71 186.91 267.07C188.55 265.44 188.55 262.74 186.91 261.1C185.27 259.46 182.58 259.46 180.94 261.1Z" fill="#9D90D0" fill-opacity="1.000000" fill-rule="evenodd"/>
	<path id="Vector" d="M420.69 251.01L420.69 211.01" stroke="#9D90D0" stroke-opacity="1.000000" stroke-width="1.000000"/>
	<path id="Vector" d="M426.19 255.71C426.19 252.7 423.7 250.22 420.69 250.22C417.68 250.22 415.2 252.7 415.2 255.71C415.2 258.72 417.68 261.21 420.69 261.21C423.7 261.21 426.19 258.78 426.19 255.71ZM416.46 255.71C416.46 253.39 418.37 251.48 420.69 251.48C423.02 251.48 424.92 253.39 424.92 255.71C424.92 258.04 423.02 259.94 420.69 259.94C418.37 259.94 416.46 258.04 416.46 255.71Z" fill="#9D90D0" fill-opacity="1.000000" fill-rule="nonzero"/>
	<path id="Vector" d="M426.19 255.71C426.19 252.7 423.7 250.22 420.69 250.22C417.68 250.22 415.2 252.7 415.2 255.71C415.2 258.72 417.68 261.21 420.69 261.21C423.7 261.21 426.19 258.78 426.19 255.71ZM416.46 255.71C416.46 253.39 418.37 251.48 420.69 251.48C423.02 251.48 424.92 253.39 424.92 255.71C424.92 258.04 423.02 259.94 420.69 259.94C418.37 259.94 416.46 258.04 416.46 255.71Z" fill="#9D90D0" fill-opacity="1.000000" fill-rule="evenodd"/>
	<path id="Vector" d="M426.19 206.78C426.19 209.79 423.7 212.27 420.69 212.27C417.68 212.27 415.2 209.79 415.2 206.78C415.2 203.77 417.68 201.28 420.69 201.28C423.7 201.28 426.19 203.77 426.19 206.78ZM416.46 206.78C416.46 209.1 418.37 211.01 420.69 211.01C423.02 211.01 424.92 209.1 424.92 206.78C424.92 204.45 423.02 202.55 420.69 202.55C418.37 202.6 416.46 204.45 416.46 206.78Z" fill="#9D90D0" fill-opacity="1.000000" fill-rule="nonzero"/>
	<path id="Vector" d="M426.19 206.78C426.19 209.79 423.7 212.27 420.69 212.27C417.68 212.27 415.2 209.79 415.2 206.78C415.2 203.77 417.68 201.28 420.69 201.28C423.7 201.28 426.19 203.77 426.19 206.78ZM416.46 206.78C416.46 209.1 418.37 211.01 420.69 211.01C423.02 211.01 424.92 209.1 424.92 206.78C424.92 204.45 423.02 202.55 420.69 202.55C418.37 202.6 416.46 204.45 416.46 206.78Z" fill="#9D90D0" fill-opacity="1.000000" fill-rule="evenodd"/>
	<path id="Vector" d="M378.58 71.49L407.64 71.49L419.9 90.68L419.9 147.22L386.34 147.22L369.43 124.39" stroke="#9D90D0" stroke-opacity="1.000000" stroke-width="1.000000"/>
	<path id="Vector" d="M373.08 76.99C376.09 76.99 378.58 74.51 378.58 71.49C378.58 68.48 376.09 66 373.08 66C370.07 66 367.58 68.48 367.58 71.49C367.58 74.51 370.02 76.99 373.08 76.99ZM373.08 67.27C375.4 67.27 377.31 69.17 377.31 71.49C377.31 73.82 375.4 75.72 373.08 75.72C370.75 75.72 368.85 73.82 368.85 71.49C368.85 69.17 370.75 67.27 373.08 67.27Z" fill="#9D90D0" fill-opacity="1.000000" fill-rule="nonzero"/>
	<path id="Vector" d="M373.08 76.99C376.09 76.99 378.58 74.51 378.58 71.49C378.58 68.48 376.09 66 373.08 66C370.07 66 367.58 68.48 367.58 71.49C367.58 74.51 370.02 76.99 373.08 76.99ZM373.08 67.27C375.4 67.27 377.31 69.17 377.31 71.49C377.31 73.82 375.4 75.72 373.08 75.72C370.75 75.72 368.85 73.82 368.85 71.49C368.85 69.17 370.75 67.27 373.08 67.27Z" fill="#9D90D0" fill-opacity="1.000000" fill-rule="evenodd"/>
	<path id="Vector" d="M371.39 117.73C373.18 120.16 372.66 123.6 370.23 125.45C367.79 127.25 364.36 126.72 362.51 124.29C360.71 121.86 361.24 118.42 363.67 116.57C366.1 114.77 369.54 115.3 371.39 117.73ZM363.57 123.49C364.94 125.34 367.58 125.77 369.43 124.39C371.28 123.02 371.7 120.38 370.33 118.53C368.96 116.68 366.31 116.25 364.46 117.63C362.56 119 362.19 121.64 363.57 123.49Z" fill="#9D90D0" fill-opacity="1.000000" fill-rule="nonzero"/>
	<path id="Vector" d="M371.39 117.73C373.18 120.16 372.66 123.6 370.23 125.45C367.79 127.25 364.36 126.72 362.51 124.29C360.71 121.86 361.24 118.42 363.67 116.57C366.1 114.77 369.54 115.3 371.39 117.73ZM363.57 123.49C364.94 125.34 367.58 125.77 369.43 124.39C371.28 123.02 371.7 120.38 370.33 118.53C368.96 116.68 366.31 116.25 364.46 117.63C362.56 119 362.19 121.64 363.57 123.49Z" fill="#9D90D0" fill-opacity="1.000000" fill-rule="evenodd"/>
	<path id="Vector" d="M431.95 154.09L431.95 123.55" stroke="#9D90D0" stroke-opacity="1.000000" stroke-width="1.000000"/>
	<path id="Vector" d="M437.44 119.32C437.44 122.33 434.96 124.82 431.95 124.82C428.94 124.82 426.45 122.33 426.45 119.32C426.45 116.31 428.94 113.82 431.95 113.82C435.01 113.82 437.44 116.31 437.44 119.32ZM427.77 119.32C427.77 121.64 429.68 123.55 432 123.55C434.33 123.55 436.23 121.64 436.23 119.32C436.23 116.99 434.33 115.09 432 115.09C429.62 115.09 427.77 116.99 427.77 119.32Z" fill="#9D90D0" fill-opacity="1.000000" fill-rule="nonzero"/>
	<path id="Vector" d="M437.44 119.32C437.44 122.33 434.96 124.82 431.95 124.82C428.94 124.82 426.45 122.33 426.45 119.32C426.45 116.31 428.94 113.82 431.95 113.82C435.01 113.82 437.44 116.31 437.44 119.32ZM427.77 119.32C427.77 121.64 429.68 123.55 432 123.55C434.33 123.55 436.23 121.64 436.23 119.32C436.23 116.99 434.33 115.09 432 115.09C429.62 115.09 427.77 116.99 427.77 119.32Z" fill="#9D90D0" fill-opacity="1.000000" fill-rule="evenodd"/>
	<path id="Vector" d="M248.42 174.33L163.13 174.33L123.28 131.74L123.28 109.33L149.44 87.45" stroke="#9D90D0" stroke-opacity="1.000000" stroke-width="1.000000"/>
	<path id="Vector" d="M252.6 168.83C249.59 168.83 247.1 171.32 247.1 174.33C247.1 177.34 249.59 179.83 252.6 179.83C255.61 179.83 258.09 177.34 258.09 174.33C258.09 171.27 255.66 168.83 252.6 168.83ZM252.6 178.56C250.27 178.56 248.37 176.66 248.37 174.33C248.37 172.01 250.27 170.1 252.6 170.1C254.92 170.1 256.82 172.01 256.82 174.33C256.82 176.66 254.92 178.56 252.6 178.56Z" fill="#9D90D0" fill-opacity="1.000000" fill-rule="nonzero"/>
	<path id="Vector" d="M252.6 168.83C249.59 168.83 247.1 171.32 247.1 174.33C247.1 177.34 249.59 179.83 252.6 179.83C255.61 179.83 258.09 177.34 258.09 174.33C258.09 171.27 255.66 168.83 252.6 168.83ZM252.6 178.56C250.27 178.56 248.37 176.66 248.37 174.33C248.37 172.01 250.27 170.1 252.6 170.1C254.92 170.1 256.82 172.01 256.82 174.33C256.82 176.66 254.92 178.56 252.6 178.56Z" fill="#9D90D0" fill-opacity="1.000000" fill-rule="evenodd"/>
	<path id="Vector" d="M156.21 88.99C153.88 90.94 150.39 90.62 148.44 88.3C146.48 85.97 146.8 82.49 149.13 80.53C151.45 78.58 154.94 78.89 156.89 81.22C158.8 83.54 158.53 87.03 156.21 88.99ZM149.97 81.53C148.17 83.01 147.96 85.71 149.44 87.45C150.92 89.25 153.62 89.46 155.36 87.98C157.16 86.5 157.37 83.81 155.89 82.06C154.41 80.27 151.72 80.06 149.97 81.53Z" fill="#9D90D0" fill-opacity="1.000000" fill-rule="nonzero"/>
	<path id="Vector" d="M156.21 88.99C153.88 90.94 150.39 90.62 148.44 88.3C146.48 85.97 146.8 82.49 149.13 80.53C151.45 78.58 154.94 78.89 156.89 81.22C158.8 83.54 158.53 87.03 156.21 88.99ZM149.97 81.53C148.17 83.01 147.96 85.71 149.44 87.45C150.92 89.25 153.62 89.46 155.36 87.98C157.16 86.5 157.37 83.81 155.89 82.06C154.41 80.27 151.72 80.06 149.97 81.53Z" fill="#9D90D0" fill-opacity="1.000000" fill-rule="evenodd"/>
	<path id="Vector" d="M179.77 119.32L248.16 119.32L248.16 148.75" stroke="#9D90D0" stroke-opacity="1.000000" stroke-width="1.000000"/>
	<path id="Vector" d="M175.55 124.81C178.56 124.81 181.04 122.33 181.04 119.32C181.04 116.31 178.56 113.82 175.55 113.82C172.54 113.82 170.05 116.31 170.05 119.32C170.05 122.33 172.54 124.81 175.55 124.81ZM175.55 115.09C177.87 115.09 179.77 116.99 179.77 119.32C179.77 121.64 177.87 123.55 175.55 123.55C173.22 123.55 171.32 121.64 171.32 119.32C171.32 116.99 173.22 115.09 175.55 115.09Z" fill="#9D90D0" fill-opacity="1.000000" fill-rule="nonzero"/>
	<path id="Vector" d="M175.55 124.81C178.56 124.81 181.04 122.33 181.04 119.32C181.04 116.31 178.56 113.82 175.55 113.82C172.54 113.82 170.05 116.31 170.05 119.32C170.05 122.33 172.54 124.81 175.55 124.81ZM175.55 115.09C177.87 115.09 179.77 116.99 179.77 119.32C179.77 121.64 177.87 123.55 175.55 123.55C173.22 123.55 171.32 121.64 171.32 119.32C171.32 116.99 173.22 115.09 175.55 115.09Z" fill="#9D90D0" fill-opacity="1.000000" fill-rule="evenodd"/>
	<path id="Vector" d="M242.66 152.98C242.66 149.97 245.14 147.49 248.16 147.49C251.17 147.49 253.65 149.97 253.65 152.98C253.65 155.99 251.17 158.48 248.16 158.48C245.14 158.48 242.66 155.99 242.66 152.98ZM252.38 152.98C252.38 150.66 250.48 148.75 248.16 148.75C245.83 148.75 243.93 150.66 243.93 152.98C243.93 155.31 245.83 157.21 248.16 157.21C250.48 157.21 252.38 155.31 252.38 152.98Z" fill="#9D90D0" fill-opacity="1.000000" fill-rule="nonzero"/>
	<path id="Vector" d="M242.66 152.98C242.66 149.97 245.14 147.49 248.16 147.49C251.17 147.49 253.65 149.97 253.65 152.98C253.65 155.99 251.17 158.48 248.16 158.48C245.14 158.48 242.66 155.99 242.66 152.98ZM252.38 152.98C252.38 150.66 250.48 148.75 248.16 148.75C245.83 148.75 243.93 150.66 243.93 152.98C243.93 155.31 245.83 157.21 248.16 157.21C250.48 157.21 252.38 155.31 252.38 152.98Z" fill="#9D90D0" fill-opacity="1.000000" fill-rule="evenodd"/>
	<path id="Vector" d="M220.62 158.53L220.62 143.26L175.34 143.26" stroke="#9D90D0" stroke-opacity="1.000000" stroke-width="1.000000"/>
	<path id="Vector" d="M226.12 162.7C226.12 159.69 223.64 157.21 220.62 157.21C217.61 157.21 215.13 159.69 215.13 162.7C215.13 165.72 217.61 168.2 220.62 168.2C223.64 168.2 226.12 165.77 226.12 162.7ZM216.4 162.7C216.4 160.38 218.3 158.48 220.62 158.48C222.95 158.48 224.85 160.38 224.85 162.7C224.85 165.03 222.95 166.93 220.62 166.93C218.3 166.93 216.4 165.03 216.4 162.7Z" fill="#9D90D0" fill-opacity="1.000000" fill-rule="nonzero"/>
	<path id="Vector" d="M226.12 162.7C226.12 159.69 223.64 157.21 220.62 157.21C217.61 157.21 215.13 159.69 215.13 162.7C215.13 165.72 217.61 168.2 220.62 168.2C223.64 168.2 226.12 165.77 226.12 162.7ZM216.4 162.7C216.4 160.38 218.3 158.48 220.62 158.48C222.95 158.48 224.85 160.38 224.85 162.7C224.85 165.03 222.95 166.93 220.62 166.93C218.3 166.93 216.4 165.03 216.4 162.7Z" fill="#9D90D0" fill-opacity="1.000000" fill-rule="evenodd"/>
	<path id="Vector" d="M171.11 137.71C174.12 137.71 176.6 140.19 176.6 143.2C176.6 146.22 174.12 148.7 171.11 148.7C168.1 148.7 165.61 146.22 165.61 143.2C165.61 140.19 168.1 137.71 171.11 137.71ZM171.11 147.43C173.43 147.43 175.33 145.53 175.33 143.2C175.33 140.88 173.43 138.98 171.11 138.98C168.78 138.98 166.88 140.88 166.88 143.2C166.93 145.53 168.78 147.43 171.11 147.43Z" fill="#9D90D0" fill-opacity="1.000000" fill-rule="nonzero"/>
	<path id="Vector" d="M171.11 137.71C174.12 137.71 176.6 140.19 176.6 143.2C176.6 146.22 174.12 148.7 171.11 148.7C168.1 148.7 165.61 146.22 165.61 143.2C165.61 140.19 168.1 137.71 171.11 137.71ZM171.11 147.43C173.43 147.43 175.33 145.53 175.33 143.2C175.33 140.88 173.43 138.98 171.11 138.98C168.78 138.98 166.88 140.88 166.88 143.2C166.93 145.53 168.78 147.43 171.11 147.43Z" fill="#9D90D0" fill-opacity="1.000000" fill-rule="evenodd"/>
	<path id="Vector" d="M9.72 163.44L45.23 163.44" stroke="#9D90D0" stroke-opacity="1.000000" stroke-width="1.000000"/>
	<path id="Vector" d="M5.49 168.94C8.5 168.94 10.99 166.46 10.99 163.44C10.99 160.43 8.5 157.95 5.49 157.95C2.48 157.95 0 160.43 0 163.44C0 166.51 2.48 168.94 5.49 168.94ZM5.49 159.27C7.82 159.27 9.72 161.17 9.72 163.5C9.72 165.82 7.82 167.73 5.49 167.73C3.16 167.73 1.26 165.82 1.26 163.5C1.26 161.12 3.16 159.27 5.49 159.27Z" fill="#9D90D0" fill-opacity="1.000000" fill-rule="nonzero"/>
	<path id="Vector" d="M5.49 168.94C8.5 168.94 10.99 166.46 10.99 163.44C10.99 160.43 8.5 157.95 5.49 157.95C2.48 157.95 0 160.43 0 163.44C0 166.51 2.48 168.94 5.49 168.94ZM5.49 159.27C7.82 159.27 9.72 161.17 9.72 163.5C9.72 165.82 7.82 167.73 5.49 167.73C3.16 167.73 1.26 165.82 1.26 163.5C1.26 161.12 3.16 159.27 5.49 159.27Z" fill="#9D90D0" fill-opacity="1.000000" fill-rule="evenodd"/>
	<path id="Vector" d="M49.41 168.94C46.39 168.94 43.91 166.46 43.91 163.44C43.91 160.43 46.39 157.95 49.41 157.95C52.42 157.95 54.9 160.43 54.9 163.44C54.95 166.51 52.47 168.94 49.41 168.94ZM49.41 159.27C47.08 159.27 45.18 161.17 45.18 163.5C45.18 165.82 47.08 167.72 49.41 167.72C51.73 167.72 53.63 165.82 53.63 163.5C53.63 161.12 51.73 159.27 49.41 159.27Z" fill="#9D90D0" fill-opacity="1.000000" fill-rule="nonzero"/>
	<path id="Vector" d="M49.41 168.94C46.39 168.94 43.91 166.46 43.91 163.44C43.91 160.43 46.39 157.95 49.41 157.95C52.42 157.95 54.9 160.43 54.9 163.44C54.95 166.51 52.47 168.94 49.41 168.94ZM49.41 159.27C47.08 159.27 45.18 161.17 45.18 163.5C45.18 165.82 47.08 167.72 49.41 167.72C51.73 167.72 53.63 165.82 53.63 163.5C53.63 161.12 51.73 159.27 49.41 159.27Z" fill="#9D90D0" fill-opacity="1.000000" fill-rule="evenodd"/>
	<path id="Vector" d="M52.31 129.57L86.5 129.57" stroke="#9D90D0" stroke-opacity="1.000000" stroke-width="1.000000"/>
	<path id="Vector" d="M46.82 135.07C49.83 135.07 52.31 132.58 52.31 129.57C52.31 126.56 49.83 124.08 46.82 124.08C43.8 124.08 41.32 126.56 41.32 129.57C41.32 132.58 43.75 135.07 46.82 135.07ZM46.82 125.34C49.14 125.34 51.04 127.25 51.04 129.57C51.04 131.9 49.14 133.8 46.82 133.8C44.49 133.8 42.59 131.9 42.59 129.57C42.59 127.25 44.49 125.34 46.82 125.34Z" fill="#9D90D0" fill-opacity="1.000000" fill-rule="nonzero"/>
	<path id="Vector" d="M46.82 135.07C49.83 135.07 52.31 132.58 52.31 129.57C52.31 126.56 49.83 124.08 46.82 124.08C43.8 124.08 41.32 126.56 41.32 129.57C41.32 132.58 43.75 135.07 46.82 135.07ZM46.82 125.34C49.14 125.34 51.04 127.25 51.04 129.57C51.04 131.9 49.14 133.8 46.82 133.8C44.49 133.8 42.59 131.9 42.59 129.57C42.59 127.25 44.49 125.34 46.82 125.34Z" fill="#9D90D0" fill-opacity="1.000000" fill-rule="evenodd"/>
	<path id="Vector" d="M90.73 135.07C87.72 135.07 85.24 132.58 85.24 129.57C85.24 126.56 87.72 124.08 90.73 124.08C93.75 124.08 96.23 126.56 96.23 129.57C96.23 132.58 93.75 135.07 90.73 135.07ZM90.73 125.34C88.41 125.34 86.5 127.25 86.5 129.57C86.5 131.9 88.41 133.8 90.73 133.8C93.06 133.8 94.96 131.9 94.96 129.57C94.96 127.25 93.06 125.34 90.73 125.34Z" fill="#9D90D0" fill-opacity="1.000000" fill-rule="nonzero"/>
	<path id="Vector" d="M90.73 135.07C87.72 135.07 85.24 132.58 85.24 129.57C85.24 126.56 87.72 124.08 90.73 124.08C93.75 124.08 96.23 126.56 96.23 129.57C96.23 132.58 93.75 135.07 90.73 135.07ZM90.73 125.34C88.41 125.34 86.5 127.25 86.5 129.57C86.5 131.9 88.41 133.8 90.73 133.8C93.06 133.8 94.96 131.9 94.96 129.57C94.96 127.25 93.06 125.34 90.73 125.34Z" fill="#9D90D0" fill-opacity="1.000000" fill-rule="evenodd"/>
	<path id="Vector" d="M200.07 192.4L235.58 192.4" stroke="#9D90D0" stroke-opacity="1.000000" stroke-width="1.000000"/>
	<path id="Vector" d="M195.84 197.95C198.85 197.95 201.34 195.47 201.34 192.46C201.34 189.44 198.85 186.96 195.84 186.96C192.83 186.96 190.34 189.44 190.34 192.46C190.34 195.47 192.83 197.95 195.84 197.95ZM195.84 188.23C198.16 188.23 200.07 190.13 200.07 192.46C200.07 194.78 198.16 196.68 195.84 196.68C193.51 196.68 191.61 194.78 191.61 192.46C191.66 190.08 193.51 188.23 195.84 188.23Z" fill="#9D90D0" fill-opacity="1.000000" fill-rule="nonzero"/>
	<path id="Vector" d="M195.84 197.95C198.85 197.95 201.34 195.47 201.34 192.46C201.34 189.44 198.85 186.96 195.84 186.96C192.83 186.96 190.34 189.44 190.34 192.46C190.34 195.47 192.83 197.95 195.84 197.95ZM195.84 188.23C198.16 188.23 200.07 190.13 200.07 192.46C200.07 194.78 198.16 196.68 195.84 196.68C193.51 196.68 191.61 194.78 191.61 192.46C191.66 190.08 193.51 188.23 195.84 188.23Z" fill="#9D90D0" fill-opacity="1.000000" fill-rule="evenodd"/>
	<path id="Vector" d="M239.81 197.95C236.79 197.95 234.31 195.47 234.31 192.46C234.31 189.44 236.79 186.96 239.81 186.96C242.82 186.96 245.3 189.44 245.3 192.46C245.3 195.47 242.82 197.95 239.81 197.95ZM239.81 188.23C237.48 188.23 235.58 190.13 235.58 192.46C235.58 194.78 237.48 196.68 239.81 196.68C242.13 196.68 244.03 194.78 244.03 192.46C243.98 190.08 242.13 188.23 239.81 188.23Z" fill="#9D90D0" fill-opacity="1.000000" fill-rule="nonzero"/>
	<path id="Vector" d="M239.81 197.95C236.79 197.95 234.31 195.47 234.31 192.46C234.31 189.44 236.79 186.96 239.81 186.96C242.82 186.96 245.3 189.44 245.3 192.46C245.3 195.47 242.82 197.95 239.81 197.95ZM239.81 188.23C237.48 188.23 235.58 190.13 235.58 192.46C235.58 194.78 237.48 196.68 239.81 196.68C242.13 196.68 244.03 194.78 244.03 192.46C243.98 190.08 242.13 188.23 239.81 188.23Z" fill="#9D90D0" fill-opacity="1.000000" fill-rule="evenodd"/>
	<path id="Vector" d="M223.58 56.54L239.43 40.69" stroke="#9D90D0" stroke-opacity="1.000000" stroke-width="1.000000"/>
	<path id="Vector" d="M224.48 63.41C226.65 61.24 226.65 57.75 224.48 55.64C222.31 53.47 218.83 53.47 216.71 55.64C214.55 57.81 214.55 61.29 216.71 63.41C218.88 65.52 222.37 65.52 224.48 63.41ZM217.61 56.54C219.25 54.9 221.94 54.9 223.58 56.54C225.22 58.18 225.22 60.87 223.58 62.51C221.94 64.15 219.25 64.15 217.61 62.51C215.97 60.82 215.97 58.18 217.61 56.54Z" fill="#9D90D0" fill-opacity="1.000000" fill-rule="nonzero"/>
	<path id="Vector" d="M216.71 63.41C218.88 65.52 222.37 65.52 224.48 63.41C226.65 61.24 226.65 57.75 224.48 55.64C222.31 53.47 218.83 53.47 216.71 55.64C214.55 57.81 214.55 61.29 216.71 63.41ZM217.61 56.54C219.25 54.9 221.94 54.9 223.58 56.54C225.22 58.18 225.22 60.87 223.58 62.51C221.94 64.15 219.25 64.15 217.61 62.51C215.97 60.82 215.97 58.18 217.61 56.54Z" fill="#9D90D0" fill-opacity="1.000000" fill-rule="evenodd"/>
	<path id="Vector" d="M247.2 40.69C245.04 42.85 241.55 42.85 239.44 40.69C237.27 38.52 237.27 35.03 239.44 32.92C241.6 30.75 245.09 30.75 247.2 32.92C249.32 35.03 249.32 38.57 247.2 40.69ZM240.34 33.82C238.7 35.45 238.7 38.15 240.34 39.79C241.97 41.43 244.67 41.43 246.31 39.79C247.94 38.15 247.94 35.45 246.31 33.82C244.62 32.18 241.97 32.18 240.34 33.82Z" fill="#9D90D0" fill-opacity="1.000000" fill-rule="nonzero"/>
	<path id="Vector" d="M247.2 32.92C249.32 35.03 249.32 38.57 247.2 40.69C245.04 42.85 241.55 42.85 239.44 40.69C237.27 38.52 237.27 35.03 239.44 32.92C241.6 30.75 245.09 30.75 247.2 32.92ZM240.34 33.82C238.7 35.45 238.7 38.15 240.34 39.79C241.97 41.43 244.67 41.43 246.31 39.79C247.94 38.15 247.94 35.45 246.31 33.82C244.62 32.18 241.97 32.18 240.34 33.82Z" fill="#9D90D0" fill-opacity="1.000000" fill-rule="evenodd"/>
	<path id="Vector" d="M74.19 143.26L27.48 143.26L27.48 114.88L46.76 91.58" stroke="#9D90D0" stroke-opacity="1.000000" stroke-width="1.000000"/>
	<path id="Vector" d="M78.42 137.71C75.41 137.71 72.92 140.19 72.92 143.21C72.92 146.22 75.41 148.7 78.42 148.7C81.43 148.7 83.91 146.22 83.91 143.21C83.91 140.19 81.43 137.71 78.42 137.71ZM78.42 147.43C76.09 147.43 74.19 145.53 74.19 143.21C74.19 140.88 76.09 138.98 78.42 138.98C80.74 138.98 82.65 140.88 82.65 143.21C82.65 145.53 80.74 147.43 78.42 147.43Z" fill="#9D90D0" fill-opacity="1.000000" fill-rule="nonzero"/>
	<path id="Vector" d="M78.42 137.71C75.41 137.71 72.92 140.19 72.92 143.21C72.92 146.22 75.41 148.7 78.42 148.7C81.43 148.7 83.91 146.22 83.91 143.21C83.91 140.19 81.43 137.71 78.42 137.71ZM78.42 147.43C76.09 147.43 74.19 145.53 74.19 143.21C74.19 140.88 76.09 138.98 78.42 138.98C80.74 138.98 82.65 140.88 82.65 143.21C82.65 145.53 80.74 147.43 78.42 147.43Z" fill="#9D90D0" fill-opacity="1.000000" fill-rule="evenodd"/>
	<path id="Vector" d="M377.26 88.14L341.85 86.56L341.85 122.02L326 131.84" stroke="#9D90D0" stroke-opacity="1.000000" stroke-width="1.000000"/>
	<path id="Vector" d="M381.75 82.8C378.74 82.64 376.15 85.02 375.99 88.03C375.83 91.05 378.21 93.64 381.22 93.79C384.23 93.95 386.82 91.58 386.98 88.56C387.14 85.55 384.76 82.96 381.75 82.8ZM381.27 92.53C378.95 92.42 377.15 90.47 377.26 88.14C377.36 85.82 379.32 84.02 381.64 84.12C383.97 84.23 385.76 86.18 385.66 88.51C385.6 90.84 383.6 92.63 381.27 92.53Z" fill="#9D90D0" fill-opacity="1.000000" fill-rule="nonzero"/>
	<path id="Vector" d="M381.75 82.8C378.74 82.64 376.15 85.02 375.99 88.03C375.83 91.05 378.21 93.64 381.22 93.79C384.23 93.95 386.82 91.58 386.98 88.56C387.14 85.55 384.76 82.96 381.75 82.8ZM385.66 88.51C385.76 86.18 383.97 84.23 381.64 84.12C379.32 84.02 377.36 85.82 377.26 88.14C377.15 90.47 378.95 92.42 381.27 92.53C383.6 92.63 385.6 90.84 385.66 88.51Z" fill="#9D90D0" fill-opacity="1.000000" fill-rule="evenodd"/>
	<path id="Vector" d="M318.97 129.73C321.55 128.14 324.94 128.94 326.52 131.47C328.11 134.06 327.32 137.45 324.78 139.03C322.19 140.62 318.81 139.82 317.22 137.29C315.64 134.75 316.43 131.32 318.97 129.73ZM324.09 137.97C326.05 136.76 326.68 134.17 325.47 132.16C324.25 130.21 321.66 129.57 319.65 130.79C317.7 132 317.06 134.59 318.28 136.6C319.55 138.61 322.14 139.19 324.09 137.97Z" fill="#9D90D0" fill-opacity="1.000000" fill-rule="nonzero"/>
	<path id="Vector" d="M318.97 129.73C321.55 128.14 324.94 128.94 326.52 131.47C328.11 134.06 327.32 137.45 324.78 139.03C322.19 140.62 318.81 139.82 317.22 137.29C315.64 134.75 316.43 131.32 318.97 129.73ZM324.09 137.97C326.05 136.76 326.68 134.17 325.47 132.16C324.25 130.21 321.66 129.57 319.65 130.79C317.7 132 317.06 134.59 318.28 136.6C319.55 138.61 322.14 139.19 324.09 137.97Z" fill="#9D90D0" fill-opacity="1.000000" fill-rule="evenodd"/>
	<path id="Vector" d="M349.35 147.22L306.76 147.22" stroke="#9D90D0" stroke-opacity="1.000000" stroke-width="1.000000"/>
	<path id="Vector" d="M353.58 141.72C350.57 141.72 348.09 144.21 348.09 147.22C348.09 150.23 350.57 152.72 353.58 152.72C356.59 152.72 359.08 150.23 359.08 147.22C359.08 144.16 356.59 141.72 353.58 141.72ZM353.58 151.39C351.26 151.39 349.35 149.49 349.35 147.17C349.35 144.84 351.26 142.94 353.58 142.94C355.91 142.94 357.81 144.84 357.81 147.17C357.81 149.55 355.91 151.39 353.58 151.39Z" fill="#9D90D0" fill-opacity="1.000000" fill-rule="nonzero"/>
	<path id="Vector" d="M353.58 141.72C350.57 141.72 348.09 144.21 348.09 147.22C348.09 150.23 350.57 152.72 353.58 152.72C356.59 152.72 359.08 150.23 359.08 147.22C359.08 144.16 356.59 141.72 353.58 141.72ZM353.58 151.39C351.26 151.39 349.35 149.49 349.35 147.17C349.35 144.84 351.26 142.94 353.58 142.94C355.91 142.94 357.81 144.84 357.81 147.17C357.81 149.55 355.91 151.39 353.58 151.39Z" fill="#9D90D0" fill-opacity="1.000000" fill-rule="evenodd"/>
	<path id="Vector" d="M261.26 25.89L291.44 25.89L332.5 60.87L353.8 60.87" stroke="#9D90D0" stroke-opacity="1.000000" stroke-width="1.000000"/>
	<path id="Vector" d="M257.03 31.39C260.05 31.39 262.53 28.9 262.53 25.89C262.53 22.88 260.05 20.39 257.03 20.39C254.02 20.39 251.54 22.88 251.54 25.89C251.54 28.9 254.02 31.39 257.03 31.39ZM257.03 21.66C259.36 21.66 261.26 23.56 261.26 25.89C261.26 28.21 259.36 30.12 257.03 30.12C254.71 30.12 252.81 28.21 252.81 25.89C252.81 23.56 254.71 21.66 257.03 21.66Z" fill="#9D90D0" fill-opacity="1.000000" fill-rule="nonzero"/>
	<path id="Vector" d="M257.03 31.39C260.05 31.39 262.53 28.9 262.53 25.89C262.53 22.88 260.05 20.39 257.03 20.39C254.02 20.39 251.54 22.88 251.54 25.89C251.54 28.9 254.02 31.39 257.03 31.39ZM257.03 21.66C259.36 21.66 261.26 23.56 261.26 25.89C261.26 28.21 259.36 30.12 257.03 30.12C254.71 30.12 252.81 28.21 252.81 25.89C252.81 23.56 254.71 21.66 257.03 21.66Z" fill="#9D90D0" fill-opacity="1.000000" fill-rule="evenodd"/>
	<path id="Vector" d="M385.13 109.28L400.4 126.4" stroke="#9D90D0" stroke-opacity="1.000000" stroke-width="1.000000"/>
	<path id="Vector" d="M377.36 108.8C379.37 111.07 382.86 111.29 385.13 109.28C387.4 107.27 387.61 103.78 385.61 101.51C383.6 99.24 380.11 99.03 377.84 101.03C375.57 103.04 375.35 106.53 377.36 108.8ZM384.66 102.36C386.19 104.1 386.03 106.74 384.29 108.33C382.54 109.91 379.9 109.7 378.31 107.96C376.78 106.21 376.94 103.57 378.68 101.99C380.43 100.45 383.07 100.61 384.66 102.36Z" fill="#9D90D0" fill-opacity="1.000000" fill-rule="nonzero"/>
	<path id="Vector" d="M377.36 108.8C379.37 111.07 382.86 111.29 385.13 109.28C387.4 107.27 387.61 103.78 385.61 101.51C383.6 99.24 380.11 99.03 377.84 101.03C375.57 103.04 375.35 106.53 377.36 108.8ZM384.66 102.36C386.19 104.1 386.03 106.74 384.29 108.33C382.54 109.91 379.9 109.7 378.31 107.96C376.78 106.21 376.94 103.57 378.68 101.99C380.43 100.45 383.07 100.61 384.66 102.36Z" fill="#9D90D0" fill-opacity="1.000000" fill-rule="evenodd"/>
	<path id="Vector" d="M399.08 133.22C397.07 130.95 397.28 127.46 399.56 125.45C401.83 123.44 405.32 123.65 407.33 125.92C409.33 128.2 409.12 131.68 406.85 133.69C404.58 135.7 401.09 135.49 399.08 133.22ZM406.32 126.77C404.79 125.03 402.1 124.87 400.35 126.4C398.61 127.93 398.45 130.63 399.98 132.37C401.51 134.12 404.21 134.27 405.95 132.74C407.7 131.16 407.85 128.46 406.32 126.77Z" fill="#9D90D0" fill-opacity="1.000000" fill-rule="nonzero"/>
	<path id="Vector" d="M399.08 133.22C397.07 130.95 397.28 127.46 399.56 125.45C401.83 123.44 405.32 123.65 407.33 125.92C409.33 128.2 409.12 131.68 406.85 133.69C404.58 135.7 401.09 135.49 399.08 133.22ZM406.32 126.77C404.79 125.03 402.1 124.87 400.35 126.4C398.61 127.93 398.45 130.63 399.98 132.37C401.51 134.12 404.21 134.27 405.95 132.74C407.7 131.16 407.85 128.46 406.32 126.77Z" fill="#9D90D0" fill-opacity="1.000000" fill-rule="evenodd"/>
	<path id="Vector" d="M198.85 97.76L211.85 84.76L271.83 86.55L301.05 110.49L317.7 110.49" stroke="#9D90D0" stroke-opacity="1.000000" stroke-width="1.000000"/>
	<path id="Vector" d="M199.75 104.63C201.92 102.46 201.92 98.97 199.75 96.86C197.58 94.69 194.09 94.69 191.98 96.86C189.81 99.03 189.81 102.51 191.98 104.63C194.09 106.74 197.58 106.74 199.75 104.63ZM192.88 97.76C194.52 96.12 197.21 96.12 198.85 97.76C200.49 99.4 200.49 102.09 198.85 103.73C197.21 105.37 194.52 105.37 192.88 103.73C191.24 102.04 191.24 99.4 192.88 97.76Z" fill="#9D90D0" fill-opacity="1.000000" fill-rule="nonzero"/>
	<path id="Vector" d="M191.98 104.63C194.09 106.74 197.58 106.74 199.75 104.63C201.92 102.46 201.92 98.97 199.75 96.86C197.58 94.69 194.09 94.69 191.98 96.86C189.81 99.03 189.81 102.51 191.98 104.63ZM192.88 97.76C194.52 96.12 197.21 96.12 198.85 97.76C200.49 99.4 200.49 102.09 198.85 103.73C197.21 105.37 194.52 105.37 192.88 103.73C191.24 102.04 191.24 99.4 192.88 97.76Z" fill="#9D90D0" fill-opacity="1.000000" fill-rule="evenodd"/>
	<path id="Vector" d="M321.87 115.99C318.86 115.99 316.38 113.51 316.38 110.49C316.38 107.48 318.86 105 321.87 105C324.88 105 327.37 107.48 327.37 110.49C327.37 113.51 324.94 115.99 321.87 115.99ZM321.87 106.27C319.55 106.27 317.64 108.17 317.64 110.49C317.64 112.82 319.55 114.72 321.87 114.72C324.2 114.72 326.1 112.82 326.1 110.49C326.1 108.17 324.2 106.27 321.87 106.27Z" fill="#9D90D0" fill-opacity="1.000000" fill-rule="nonzero"/>
	<path id="Vector" d="M321.87 115.99C318.86 115.99 316.38 113.51 316.38 110.49C316.38 107.48 318.86 105 321.87 105C324.88 105 327.37 107.48 327.37 110.49C327.37 113.51 324.94 115.99 321.87 115.99ZM321.87 106.27C319.55 106.27 317.64 108.17 317.64 110.49C317.64 112.82 319.55 114.72 321.87 114.72C324.2 114.72 326.1 112.82 326.1 110.49C326.1 108.17 324.2 106.27 321.87 106.27Z" fill="#9D90D0" fill-opacity="1.000000" fill-rule="evenodd"/>
	<path id="Vector" d="M301.79 62.4L281.5 47.34" stroke="#9D90D0" stroke-opacity="1.000000" stroke-width="1.000000"/>
	<path id="Vector" d="M308.77 59.66C306.29 57.91 302.85 58.55 301.11 61.03C299.36 63.51 300 66.95 302.48 68.69C304.96 70.44 308.4 69.8 310.14 67.32C311.84 64.84 311.25 61.4 308.77 59.66ZM303.22 67.64C301.32 66.31 300.84 63.67 302.16 61.77C303.49 59.87 306.13 59.39 308.03 60.71C309.93 62.03 310.41 64.68 309.09 66.58C307.71 68.48 305.12 68.96 303.22 67.64Z" fill="#9D90D0" fill-opacity="1.000000" fill-rule="nonzero"/>
	<path id="Vector" d="M308.77 59.66C306.29 57.91 302.85 58.55 301.11 61.03C299.36 63.51 300 66.95 302.48 68.69C304.96 70.44 308.4 69.8 310.14 67.32C311.84 64.84 311.25 61.4 308.77 59.66ZM303.22 67.64C301.32 66.31 300.84 63.67 302.16 61.77C303.49 59.87 306.13 59.39 308.03 60.71C309.93 62.03 310.41 64.68 309.09 66.58C307.71 68.48 305.12 68.96 303.22 67.64Z" fill="#9D90D0" fill-opacity="1.000000" fill-rule="evenodd"/>
	<path id="Vector" d="M281.18 40.42C283.67 42.16 284.3 45.6 282.56 48.08C280.81 50.57 277.38 51.2 274.9 49.46C272.41 47.71 271.78 44.28 273.52 41.79C275.26 39.26 278.7 38.68 281.18 40.42ZM275.64 48.35C277.54 49.67 280.18 49.19 281.5 47.29C282.82 45.39 282.35 42.75 280.44 41.42C278.54 40.1 275.9 40.58 274.58 42.48C273.26 44.38 273.73 47.03 275.64 48.35Z" fill="#9D90D0" fill-opacity="1.000000" fill-rule="nonzero"/>
	<path id="Vector" d="M281.18 40.42C283.67 42.16 284.3 45.6 282.56 48.08C280.81 50.57 277.38 51.2 274.9 49.46C272.41 47.71 271.78 44.28 273.52 41.79C275.26 39.26 278.7 38.68 281.18 40.42ZM275.64 48.35C277.54 49.67 280.18 49.19 281.5 47.29C282.82 45.39 282.35 42.75 280.44 41.42C278.54 40.1 275.9 40.58 274.58 42.48C273.26 44.38 273.73 47.03 275.64 48.35Z" fill="#9D90D0" fill-opacity="1.000000" fill-rule="evenodd"/>
	<path id="Vector" d="M270.03 60.61L301.05 84.76L322.19 84.76" stroke="#9D90D0" stroke-opacity="1.000000" stroke-width="1.000000"/>
	<path id="Vector" d="M263.43 62.72C265.91 64.47 269.35 63.83 271.09 61.35C272.84 58.86 272.2 55.43 269.72 53.68C267.23 51.94 263.8 52.58 262.05 55.06C260.31 57.54 260.94 60.98 263.43 62.72ZM268.98 54.74C270.88 56.06 271.35 58.71 270.03 60.61C268.71 62.51 266.07 62.99 264.17 61.66C262.27 60.34 261.79 57.7 263.11 55.8C264.43 53.9 267.07 53.42 268.98 54.74Z" fill="#9D90D0" fill-opacity="1.000000" fill-rule="nonzero"/>
	<path id="Vector" d="M263.43 62.72C265.91 64.47 269.35 63.83 271.09 61.35C272.84 58.86 272.2 55.43 269.72 53.68C267.23 51.94 263.8 52.58 262.05 55.06C260.31 57.54 260.94 60.98 263.43 62.72ZM268.98 54.74C270.88 56.06 271.35 58.71 270.03 60.61C268.71 62.51 266.07 62.99 264.17 61.66C262.27 60.34 261.79 57.7 263.11 55.8C264.43 53.9 267.07 53.42 268.98 54.74Z" fill="#9D90D0" fill-opacity="1.000000" fill-rule="evenodd"/>
	<path id="Vector" d="M326.42 90.25C323.41 90.25 320.92 87.77 320.92 84.76C320.92 81.75 323.41 79.26 326.42 79.26C329.43 79.26 331.91 81.75 331.91 84.76C331.91 87.82 329.48 90.25 326.42 90.25ZM326.42 80.58C324.09 80.58 322.19 82.49 322.19 84.81C322.19 87.14 324.09 89.04 326.42 89.04C328.74 89.04 330.64 87.14 330.64 84.81C330.64 82.43 328.74 80.58 326.42 80.58Z" fill="#9D90D0" fill-opacity="1.000000" fill-rule="nonzero"/>
	<path id="Vector" d="M326.42 90.25C323.41 90.25 320.92 87.77 320.92 84.76C320.92 81.75 323.41 79.26 326.42 79.26C329.43 79.26 331.91 81.75 331.91 84.76C331.91 87.82 329.48 90.25 326.42 90.25ZM326.42 80.58C324.09 80.58 322.19 82.49 322.19 84.81C322.19 87.14 324.09 89.04 326.42 89.04C328.74 89.04 330.64 87.14 330.64 84.81C330.64 82.43 328.74 80.58 326.42 80.58Z" fill="#9D90D0" fill-opacity="1.000000" fill-rule="evenodd"/>
	<path id="Vector" d="M380.37 184.85L302.53 184.85L302.53 204.77L318.76 219.25" stroke="#9D90D0" stroke-opacity="1.000000" stroke-width="1.000000"/>
	<path id="Vector" d="M384.6 179.35C381.59 179.35 379.1 181.84 379.1 184.85C379.1 187.86 381.59 190.34 384.6 190.34C387.61 190.34 390.1 187.86 390.1 184.85C390.1 181.84 387.61 179.35 384.6 179.35ZM384.6 189.08C382.27 189.08 380.37 187.17 380.37 184.85C380.37 182.52 382.27 180.62 384.6 180.62C386.93 180.62 388.83 182.52 388.83 184.85C388.77 187.17 386.93 189.08 384.6 189.08Z" fill="#9D90D0" fill-opacity="1.000000" fill-rule="nonzero"/>
	<path id="Vector" d="M384.6 179.35C381.59 179.35 379.1 181.84 379.1 184.85C379.1 187.86 381.59 190.34 384.6 190.34C387.61 190.34 390.1 187.86 390.1 184.85C390.1 181.84 387.61 179.35 384.6 179.35ZM384.6 189.08C382.27 189.08 380.37 187.17 380.37 184.85C380.37 182.52 382.27 180.62 384.6 180.62C386.93 180.62 388.83 182.52 388.83 184.85C388.77 187.17 386.93 189.08 384.6 189.08Z" fill="#9D90D0" fill-opacity="1.000000" fill-rule="evenodd"/>
	<path id="Vector" d="M318.23 226.17C315.95 224.16 315.74 220.68 317.8 218.4C319.81 216.13 323.3 215.92 325.57 217.98C327.84 219.99 328.05 223.48 325.99 225.75C323.99 227.97 320.5 228.18 318.23 226.17ZM324.67 218.93C322.93 217.4 320.29 217.56 318.7 219.25C317.17 220.99 317.33 223.64 319.02 225.22C320.76 226.75 323.4 226.59 324.99 224.9C326.57 223.11 326.42 220.46 324.67 218.93Z" fill="#9D90D0" fill-opacity="1.000000" fill-rule="nonzero"/>
	<path id="Vector" d="M318.23 226.17C315.95 224.16 315.74 220.68 317.8 218.4C319.81 216.13 323.3 215.92 325.57 217.98C327.84 219.99 328.05 223.48 325.99 225.75C323.99 227.97 320.5 228.18 318.23 226.17ZM324.67 218.93C322.93 217.4 320.29 217.56 318.7 219.25C317.17 220.99 317.33 223.64 319.02 225.22C320.76 226.75 323.4 226.59 324.99 224.9C326.57 223.11 326.42 220.46 324.67 218.93Z" fill="#9D90D0" fill-opacity="1.000000" fill-rule="evenodd"/>
	<path id="Vector" d="M134.11 21.03L100.24 21.03L68.75 52.52L77.31 84.23" stroke="#9D90D0" stroke-opacity="1.000000" stroke-width="1.000000"/>
	<path id="Vector" d="M138.34 15.48C135.33 15.48 132.85 17.96 132.85 20.97C132.85 23.99 135.33 26.47 138.34 26.47C141.35 26.47 143.84 23.99 143.84 20.97C143.84 17.96 141.41 15.48 138.34 15.48ZM138.34 25.2C136.02 25.2 134.11 23.3 134.11 20.97C134.11 18.65 136.02 16.75 138.34 16.75C140.67 16.75 142.57 18.65 142.57 20.97C142.57 23.35 140.67 25.2 138.34 25.2Z" fill="#9D90D0" fill-opacity="1.000000" fill-rule="nonzero"/>
	<path id="Vector" d="M138.34 15.48C135.33 15.48 132.85 17.96 132.85 20.97C132.85 23.99 135.33 26.47 138.34 26.47C141.35 26.47 143.84 23.99 143.84 20.97C143.84 17.96 141.41 15.48 138.34 15.48ZM138.34 25.2C136.02 25.2 134.11 23.3 134.11 20.97C134.11 18.65 136.02 16.75 138.34 16.75C140.67 16.75 142.57 18.65 142.57 20.97C142.57 23.35 140.67 25.2 138.34 25.2Z" fill="#9D90D0" fill-opacity="1.000000" fill-rule="evenodd"/>
	<path id="Vector" d="M73.08 89.72C72.28 86.82 74.03 83.75 76.93 82.96C79.84 82.17 82.91 83.91 83.7 86.82C84.49 89.72 82.75 92.79 79.84 93.58C76.88 94.43 73.87 92.68 73.08 89.72ZM82.48 87.24C81.9 85.02 79.58 83.65 77.31 84.28C75.08 84.86 73.71 87.19 74.35 89.46C74.93 91.68 77.25 93.05 79.52 92.42C81.74 91.79 83.07 89.46 82.48 87.24Z" fill="#9D90D0" fill-opacity="1.000000" fill-rule="nonzero"/>
	<path id="Vector" d="M73.08 89.72C72.28 86.82 74.03 83.75 76.93 82.96C79.84 82.17 82.91 83.91 83.7 86.82C84.49 89.72 82.75 92.79 79.84 93.58C76.88 94.43 73.87 92.68 73.08 89.72ZM82.48 87.24C81.9 85.02 79.58 83.65 77.31 84.28C75.08 84.86 73.71 87.19 74.35 89.46C74.93 91.68 77.25 93.05 79.52 92.42C81.74 91.79 83.07 89.46 82.48 87.24Z" fill="#9D90D0" fill-opacity="1.000000" fill-rule="evenodd"/>
	<path id="Vector" d="M108.75 95.12L148.12 66.16L195.84 66.16L222.15 39.95" stroke="#9D90D0" stroke-opacity="1.000000" stroke-width="1.000000"/>
	<path id="Vector" d="M108.65 102.09C111.08 100.3 111.6 96.86 109.81 94.38C108.01 91.95 104.58 91.42 102.09 93.21C99.66 95.01 99.13 98.45 100.93 100.93C102.73 103.36 106.16 103.89 108.65 102.09ZM102.88 94.22C104.73 92.84 107.38 93.27 108.75 95.12C110.12 96.97 109.7 99.61 107.85 100.98C106 102.36 103.36 101.93 101.99 100.08C100.61 98.23 100.98 95.64 102.88 94.22Z" fill="#9D90D0" fill-opacity="1.000000" fill-rule="nonzero"/>
	<path id="Vector" d="M108.65 102.09C111.08 100.3 111.6 96.86 109.81 94.38C108.01 91.95 104.58 91.42 102.09 93.21C99.66 95.01 99.13 98.45 100.93 100.93C102.73 103.36 106.16 103.89 108.65 102.09ZM102.88 94.22C104.73 92.84 107.38 93.27 108.75 95.12C110.12 96.97 109.7 99.61 107.85 100.98C106 102.36 103.36 101.93 101.99 100.08C100.61 98.23 100.98 95.64 102.88 94.22Z" fill="#9D90D0" fill-opacity="1.000000" fill-rule="evenodd"/>
	<path id="Vector" d="M229.92 39.95C227.76 42.11 224.27 42.06 222.15 39.95C219.99 37.78 220.04 34.29 222.15 32.18C224.32 30.01 227.81 30.06 229.92 32.18C232.09 34.34 232.09 37.83 229.92 39.95ZM223.05 33.08C221.41 34.71 221.41 37.41 223.05 39.05C224.69 40.69 227.38 40.69 229.02 39.05C230.66 37.41 230.66 34.71 229.02 33.08C227.38 31.44 224.69 31.44 223.05 33.08Z" fill="#9D90D0" fill-opacity="1.000000" fill-rule="nonzero"/>
	<path id="Vector" d="M229.92 39.95C227.76 42.11 224.27 42.06 222.15 39.95C219.99 37.78 220.04 34.29 222.15 32.18C224.32 30.01 227.81 30.06 229.92 32.18C232.09 34.34 232.09 37.83 229.92 39.95ZM223.05 33.08C221.41 34.71 221.41 37.41 223.05 39.05C224.69 40.69 227.38 40.69 229.02 39.05C230.66 37.41 230.66 34.71 229.02 33.08C227.38 31.44 224.69 31.44 223.05 33.08Z" fill="#9D90D0" fill-opacity="1.000000" fill-rule="evenodd"/>
	<path id="Vector" d="M200.96 29.85L187.96 43.38L138.34 43.38L113.24 64.15" stroke="#9D90D0" stroke-opacity="1.000000" stroke-width="1.000000"/>
	<path id="Vector" d="M200.81 22.09C198.69 24.25 198.75 27.74 200.96 29.85C203.13 31.97 206.62 31.91 208.73 29.69C210.85 27.53 210.79 24.04 208.57 21.93C206.41 19.81 202.92 19.87 200.81 22.09ZM207.83 28.8C206.25 30.49 203.55 30.54 201.86 28.9C200.17 27.32 200.12 24.62 201.76 22.93C203.34 21.24 206.04 21.19 207.73 22.82C209.37 24.46 209.42 27.11 207.83 28.8Z" fill="#9D90D0" fill-opacity="1.000000" fill-rule="nonzero"/>
	<path id="Vector" d="M200.81 22.09C198.69 24.25 198.75 27.74 200.96 29.85C203.13 31.97 206.62 31.91 208.73 29.69C210.85 27.53 210.79 24.04 208.57 21.93C206.41 19.81 202.92 19.87 200.81 22.09ZM207.83 28.8C206.25 30.49 203.55 30.54 201.86 28.9C200.17 27.32 200.12 24.62 201.76 22.93C203.34 21.24 206.04 21.19 207.73 22.82C209.37 24.46 209.42 27.11 207.83 28.8Z" fill="#9D90D0" fill-opacity="1.000000" fill-rule="evenodd"/>
	<path id="Vector" d="M106.48 62.62C108.8 60.66 112.29 61.03 114.24 63.36C116.2 65.68 115.83 69.17 113.5 71.12C111.18 73.08 107.69 72.71 105.74 70.38C103.83 68.01 104.15 64.52 106.48 62.62ZM112.71 70.07C114.51 68.59 114.77 65.95 113.29 64.15C111.81 62.35 109.17 62.09 107.37 63.57C105.58 65.05 105.31 67.69 106.79 69.49C108.27 71.34 110.92 71.55 112.71 70.07Z" fill="#9D90D0" fill-opacity="1.000000" fill-rule="nonzero"/>
	<path id="Vector" d="M106.48 62.62C108.8 60.66 112.29 61.03 114.24 63.36C116.2 65.68 115.83 69.17 113.5 71.12C111.18 73.08 107.69 72.71 105.74 70.38C103.83 68.01 104.15 64.52 106.48 62.62ZM112.71 70.07C114.51 68.59 114.77 65.95 113.29 64.15C111.81 62.35 109.17 62.09 107.37 63.57C105.58 65.05 105.31 67.69 106.79 69.49C108.27 71.34 110.92 71.55 112.71 70.07Z" fill="#9D90D0" fill-opacity="1.000000" fill-rule="evenodd"/>
	<path id="Vector" d="M90.25 55.27L107.01 39" stroke="#9D90D0" stroke-opacity="1.000000" stroke-width="1.000000"/>
	<path id="Vector" d="M91.1 62.14C93.26 60.03 93.32 56.54 91.2 54.37C89.09 52.21 85.6 52.15 83.43 54.27C81.27 56.38 81.22 59.87 83.33 62.03C85.44 64.2 88.93 64.25 91.1 62.14ZM84.33 55.16C85.97 53.53 88.67 53.58 90.31 55.27C91.94 56.91 91.89 59.6 90.2 61.24C88.56 62.88 85.87 62.83 84.23 61.14C82.64 59.5 82.64 56.8 84.33 55.16Z" fill="#9D90D0" fill-opacity="1.000000" fill-rule="nonzero"/>
	<path id="Vector" d="M91.1 62.14C93.26 60.03 93.32 56.54 91.2 54.37C89.09 52.21 85.6 52.15 83.43 54.27C81.27 56.38 81.22 59.87 83.33 62.03C85.44 64.2 88.93 64.25 91.1 62.14ZM84.33 55.16C85.97 53.53 88.67 53.58 90.31 55.27C91.94 56.91 91.89 59.6 90.2 61.24C88.56 62.88 85.87 62.83 84.23 61.14C82.64 59.5 82.64 56.8 84.33 55.16Z" fill="#9D90D0" fill-opacity="1.000000" fill-rule="evenodd"/>
	<path id="Vector" d="M113.82 40C111.65 42.11 108.17 42.06 106.05 39.89C103.94 37.73 103.99 34.24 106.16 32.13C108.32 30.01 111.81 30.06 113.93 32.23C116.09 34.4 116.04 37.89 113.82 40ZM107.06 33.02C105.42 34.66 105.36 37.3 106.95 39C108.59 40.63 111.23 40.69 112.92 39.1C114.56 37.46 114.61 34.82 113.03 33.13C111.39 31.44 108.75 31.44 107.06 33.02Z" fill="#9D90D0" fill-opacity="1.000000" fill-rule="nonzero"/>
	<path id="Vector" d="M113.82 40C111.65 42.11 108.17 42.06 106.05 39.89C103.94 37.73 103.99 34.24 106.16 32.13C108.32 30.01 111.81 30.06 113.93 32.23C116.09 34.4 116.04 37.89 113.82 40ZM107.06 33.02C105.42 34.66 105.36 37.3 106.95 39C108.59 40.63 111.23 40.69 112.92 39.1C114.56 37.46 114.61 34.82 113.03 33.13C111.39 31.44 108.75 31.44 107.06 33.02Z" fill="#9D90D0" fill-opacity="1.000000" fill-rule="evenodd"/>
	<path id="Vector" d="M180.25 90.94L147.85 116.68" stroke="#9D90D0" stroke-opacity="1.000000" stroke-width="1.000000"/>
	<path id="Vector" d="M180.09 84.02C177.71 85.92 177.34 89.36 179.19 91.73C181.1 94.11 184.53 94.48 186.91 92.63C189.29 90.73 189.66 87.29 187.81 84.92C185.96 82.54 182.47 82.12 180.09 84.02ZM186.17 91.63C184.37 93.05 181.68 92.79 180.25 90.94C178.82 89.14 179.09 86.45 180.94 85.02C182.73 83.6 185.43 83.86 186.85 85.71C188.28 87.51 187.96 90.15 186.17 91.63Z" fill="#9D90D0" fill-opacity="1.000000" fill-rule="nonzero"/>
	<path id="Vector" d="M180.09 84.02C177.71 85.92 177.34 89.36 179.19 91.73C181.1 94.11 184.53 94.48 186.91 92.63C189.29 90.73 189.66 87.29 187.81 84.92C185.96 82.54 182.47 82.12 180.09 84.02ZM186.17 91.63C184.37 93.05 181.68 92.79 180.25 90.94C178.82 89.14 179.09 86.45 180.94 85.02C182.73 83.6 185.43 83.86 186.85 85.71C188.28 87.51 187.96 90.15 186.17 91.63Z" fill="#9D90D0" fill-opacity="1.000000" fill-rule="evenodd"/>
	<path id="Vector" d="M141.14 114.99C143.52 113.08 147.01 113.51 148.86 115.88C150.76 118.26 150.34 121.75 147.96 123.6C145.58 125.5 142.09 125.08 140.24 122.7C138.34 120.38 138.76 116.89 141.14 114.99ZM147.17 122.6C148.96 121.17 149.28 118.47 147.85 116.68C146.42 114.88 143.73 114.56 141.93 115.99C140.14 117.42 139.82 120.11 141.25 121.91C142.73 123.76 145.37 124.07 147.17 122.6Z" fill="#9D90D0" fill-opacity="1.000000" fill-rule="nonzero"/>
	<path id="Vector" d="M141.14 114.99C143.52 113.08 147.01 113.51 148.86 115.88C150.76 118.26 150.34 121.75 147.96 123.6C145.58 125.5 142.09 125.08 140.24 122.7C138.34 120.38 138.76 116.89 141.14 114.99ZM147.17 122.6C148.96 121.17 149.28 118.47 147.85 116.68C146.42 114.88 143.73 114.56 141.93 115.99C140.14 117.42 139.82 120.11 141.25 121.91C142.73 123.76 145.37 124.07 147.17 122.6Z" fill="#9D90D0" fill-opacity="1.000000" fill-rule="evenodd"/>
	<path id="Vector" d="M353.58 225.22L353.58 266.01" stroke="#9D90D0" stroke-opacity="1.000000" stroke-width="1.000000"/>
	<path id="Vector" d="M348.09 221.15C348.09 224.16 350.57 226.65 353.58 226.65C356.59 226.65 359.08 224.16 359.08 221.15C359.08 218.14 356.59 215.65 353.58 215.65C350.57 215.65 348.09 218.14 348.09 221.15ZM357.81 221.15C357.81 223.48 355.91 225.38 353.58 225.38C351.26 225.38 349.35 223.48 349.35 221.15C349.35 218.83 351.26 216.92 353.58 216.92C355.91 216.92 357.81 218.83 357.81 221.15Z" fill="#9D90D0" fill-opacity="1.000000" fill-rule="nonzero"/>
	<path id="Vector" d="M348.09 221.15C348.09 224.16 350.57 226.65 353.58 226.65C356.59 226.65 359.08 224.16 359.08 221.15C359.08 218.14 356.59 215.65 353.58 215.65C350.57 215.65 348.09 218.14 348.09 221.15ZM357.81 221.15C357.81 223.48 355.91 225.38 353.58 225.38C351.26 225.38 349.35 223.48 349.35 221.15C349.35 218.83 351.26 216.92 353.58 216.92C355.91 216.92 357.81 218.83 357.81 221.15Z" fill="#9D90D0" fill-opacity="1.000000" fill-rule="evenodd"/>
	<path id="Vector" d="M348.09 270.77C348.09 267.76 350.57 265.28 353.58 265.28C356.59 265.28 359.08 267.76 359.08 270.77C359.08 273.78 356.59 276.27 353.58 276.27C350.57 276.27 348.09 273.78 348.09 270.77ZM357.81 270.77C357.81 268.45 355.91 266.54 353.58 266.54C351.26 266.54 349.35 268.45 349.35 270.77C349.35 273.1 351.26 275 353.58 275C355.91 275 357.81 273.1 357.81 270.77Z" fill="#9D90D0" fill-opacity="1.000000" fill-rule="nonzero"/>
	<path id="Vector" d="M348.09 270.77C348.09 267.76 350.57 265.28 353.58 265.28C356.59 265.28 359.08 267.76 359.08 270.77C359.08 273.78 356.59 276.27 353.58 276.27C350.57 276.27 348.09 273.78 348.09 270.77ZM357.81 270.77C357.81 268.45 355.91 266.54 353.58 266.54C351.26 266.54 349.35 268.45 349.35 270.77C349.35 273.1 351.26 275 353.58 275C355.91 275 357.81 273.1 357.81 270.77Z" fill="#9D90D0" fill-opacity="1.000000" fill-rule="evenodd"/>
	<path id="Vector" d="M369.07 225.22L369.07 266.02" stroke="#9D90D0" stroke-opacity="1.000000" stroke-width="1.000000"/>
	<path id="Vector" d="M363.57 221.15C363.57 224.16 366.05 226.65 369.07 226.65C372.08 226.65 374.56 224.16 374.56 221.15C374.56 218.14 372.08 215.66 369.07 215.66C366.05 215.66 363.57 218.14 363.57 221.15ZM373.29 221.15C373.29 223.48 371.39 225.38 369.07 225.38C366.74 225.38 364.84 223.48 364.84 221.15C364.84 218.83 366.74 216.92 369.07 216.92C371.39 216.92 373.29 218.83 373.29 221.15Z" fill="#9D90D0" fill-opacity="1.000000" fill-rule="nonzero"/>
	<path id="Vector" d="M363.57 221.15C363.57 224.16 366.05 226.65 369.07 226.65C372.08 226.65 374.56 224.16 374.56 221.15C374.56 218.14 372.08 215.66 369.07 215.66C366.05 215.66 363.57 218.14 363.57 221.15ZM373.29 221.15C373.29 223.48 371.39 225.38 369.07 225.38C366.74 225.38 364.84 223.48 364.84 221.15C364.84 218.83 366.74 216.92 369.07 216.92C371.39 216.92 373.29 218.83 373.29 221.15Z" fill="#9D90D0" fill-opacity="1.000000" fill-rule="evenodd"/>
	<path id="Vector" d="M363.57 270.77C363.57 267.76 366.05 265.28 369.07 265.28C372.08 265.28 374.56 267.76 374.56 270.77C374.56 273.78 372.08 276.27 369.07 276.27C366.05 276.27 363.57 273.78 363.57 270.77ZM373.29 270.77C373.29 268.45 371.39 266.54 369.07 266.54C366.74 266.54 364.84 268.45 364.84 270.77C364.84 273.1 366.74 275 369.07 275C371.39 275 373.29 273.1 373.29 270.77Z" fill="#9D90D0" fill-opacity="1.000000" fill-rule="nonzero"/>
	<path id="Vector" d="M363.57 270.77C363.57 267.76 366.05 265.28 369.07 265.28C372.08 265.28 374.56 267.76 374.56 270.77C374.56 273.78 372.08 276.27 369.07 276.27C366.05 276.27 363.57 273.78 363.57 270.77ZM373.29 270.77C373.29 268.45 371.39 266.54 369.07 266.54C366.74 266.54 364.84 268.45 364.84 270.77C364.84 273.1 366.74 275 369.07 275C371.39 275 373.29 273.1 373.29 270.77Z" fill="#9D90D0" fill-opacity="1.000000" fill-rule="evenodd"/>
	<path id="Vector" d="M384.6 225.22L384.6 266.02" stroke="#9D90D0" stroke-opacity="1.000000" stroke-width="1.000000"/>
	<path id="Vector" d="M379.05 221.15C379.05 224.16 381.54 226.65 384.55 226.65C387.56 226.65 390.04 224.16 390.04 221.15C390.04 218.14 387.56 215.66 384.55 215.66C381.54 215.66 379.05 218.14 379.05 221.15ZM388.77 221.15C388.77 223.48 386.87 225.38 384.55 225.38C382.22 225.38 380.32 223.48 380.32 221.15C380.32 218.83 382.22 216.92 384.55 216.92C386.87 216.92 388.77 218.83 388.77 221.15Z" fill="#9D90D0" fill-opacity="1.000000" fill-rule="nonzero"/>
	<path id="Vector" d="M379.05 221.15C379.05 224.16 381.54 226.65 384.55 226.65C387.56 226.65 390.04 224.16 390.04 221.15C390.04 218.14 387.56 215.66 384.55 215.66C381.54 215.66 379.05 218.14 379.05 221.15ZM388.77 221.15C388.77 223.48 386.87 225.38 384.55 225.38C382.22 225.38 380.32 223.48 380.32 221.15C380.32 218.83 382.22 216.92 384.55 216.92C386.87 216.92 388.77 218.83 388.77 221.15Z" fill="#9D90D0" fill-opacity="1.000000" fill-rule="evenodd"/>
	<path id="Vector" d="M379.05 270.77C379.05 267.76 381.54 265.28 384.55 265.28C387.56 265.28 390.04 267.76 390.04 270.77C390.04 273.78 387.56 276.27 384.55 276.27C381.54 276.27 379.05 273.78 379.05 270.77ZM388.77 270.77C388.77 268.45 386.87 266.54 384.55 266.54C382.22 266.54 380.32 268.45 380.32 270.77C380.32 273.1 382.22 275 384.55 275C386.87 275 388.77 273.1 388.77 270.77Z" fill="#9D90D0" fill-opacity="1.000000" fill-rule="nonzero"/>
	<path id="Vector" d="M379.05 270.77C379.05 267.76 381.54 265.28 384.55 265.28C387.56 265.28 390.04 267.76 390.04 270.77C390.04 273.78 387.56 276.27 384.55 276.27C381.54 276.27 379.05 273.78 379.05 270.77ZM388.77 270.77C388.77 268.45 386.87 266.54 384.55 266.54C382.22 266.54 380.32 268.45 380.32 270.77C380.32 273.1 382.22 275 384.55 275C386.87 275 388.77 273.1 388.77 270.77Z" fill="#9D90D0" fill-opacity="1.000000" fill-rule="evenodd"/>
	<path id="Vector" d="M151.87 188.39L119.75 188.39L101.35 166.67" stroke="#9D90D0" stroke-opacity="1.000000" stroke-width="1.000000"/>
	<path id="Vector" d="M102.84 159.9C104.79 162.23 104.52 165.72 102.2 167.67C99.87 169.63 96.39 169.36 94.43 167.04C92.48 164.71 92.74 161.23 95.07 159.27C97.39 157.31 100.88 157.58 102.84 159.9ZM95.44 166.19C96.91 167.99 99.61 168.2 101.35 166.67C103.15 165.19 103.36 162.49 101.83 160.75C100.35 158.95 97.66 158.74 95.91 160.27C94.17 161.75 93.9 164.4 95.44 166.19Z" fill="#9D90D0" fill-opacity="1.000000" fill-rule="nonzero"/>
	<path id="Vector" d="M102.84 159.9C104.79 162.23 104.52 165.72 102.2 167.67C99.87 169.63 96.39 169.36 94.43 167.04C92.48 164.71 92.74 161.23 95.07 159.27C97.39 157.31 100.88 157.58 102.84 159.9ZM101.83 160.75C100.35 158.95 97.66 158.74 95.91 160.27C94.17 161.75 93.9 164.4 95.44 166.19C96.91 167.99 99.61 168.2 101.35 166.67C103.15 165.19 103.36 162.49 101.83 160.75Z" fill="#9D90D0" fill-opacity="1.000000" fill-rule="evenodd"/>
	<path id="Vector" d="M262.16 231.24C257.93 231.19 243.77 231.24 243.77 231.24L220.62 249.53L220.62 286.73" stroke="#9D90D0" stroke-opacity="1.000000" stroke-width="1.000000"/>
	<path id="Vector" d="M268.71 226.01C265.81 225.06 262.74 226.65 261.79 229.55C260.84 232.46 262.42 235.52 265.33 236.48C268.24 237.43 271.3 235.84 272.25 232.94C273.15 230.08 271.57 226.96 268.71 226.01ZM265.7 235.26C263.48 234.52 262.26 232.14 263.01 229.98C263.74 227.76 266.12 226.54 268.29 227.28C270.51 228.02 271.72 230.4 270.98 232.57C270.3 234.79 267.92 236 265.7 235.26Z" fill="#9D90D0" fill-opacity="1.000000" fill-rule="nonzero"/>
	<path id="Vector" d="M268.71 226.01C265.81 225.06 262.74 226.65 261.79 229.55C260.84 232.46 262.42 235.52 265.33 236.48C268.24 237.43 271.3 235.84 272.25 232.94C273.15 230.08 271.57 226.96 268.71 226.01ZM265.7 235.26C263.48 234.52 262.26 232.14 263.01 229.98C263.74 227.76 266.12 226.54 268.29 227.28C270.51 228.02 271.72 230.4 270.98 232.57C270.3 234.79 267.92 236 265.7 235.26Z" fill="#9D90D0" fill-opacity="1.000000" fill-rule="evenodd"/>
	<path id="Vector" d="M215.07 290.91C215.07 287.89 217.56 285.41 220.57 285.41C223.58 285.41 226.07 287.89 226.07 290.91C226.07 293.92 223.58 296.4 220.57 296.4C217.56 296.4 215.07 293.97 215.07 290.91ZM224.8 290.91C224.8 288.58 222.89 286.68 220.57 286.68C218.24 286.68 216.34 288.58 216.34 290.91C216.34 293.23 218.24 295.13 220.57 295.13C222.89 295.13 224.8 293.23 224.8 290.91Z" fill="#9D90D0" fill-opacity="1.000000" fill-rule="nonzero"/>
	<path id="Vector" d="M215.07 290.91C215.07 287.89 217.56 285.41 220.57 285.41C223.58 285.41 226.07 287.89 226.07 290.91C226.07 293.92 223.58 296.4 220.57 296.4C217.56 296.4 215.07 293.97 215.07 290.91ZM224.8 290.91C224.8 288.58 222.89 286.68 220.57 286.68C218.24 286.68 216.34 288.58 216.34 290.91C216.34 293.23 218.24 295.13 220.57 295.13C222.89 295.13 224.8 293.23 224.8 290.91Z" fill="#9D90D0" fill-opacity="1.000000" fill-rule="evenodd"/>
	<path id="Vector" d="M244.56 260.68L258.88 249.53L287.16 249.53L321.87 275.21L284.46 302.8" stroke="#9D90D0" stroke-opacity="1.000000" stroke-width="1.000000"/>
	<path id="Vector" d="M243.61 268.4C245.99 266.55 246.41 263.06 244.56 260.68C242.71 258.3 239.23 257.88 236.85 259.73C234.47 261.58 234.05 265.07 235.9 267.44C237.75 269.82 241.18 270.3 243.61 268.4ZM237.64 260.73C239.49 259.31 242.13 259.62 243.56 261.47C244.99 263.32 244.67 265.96 242.82 267.39C240.97 268.82 238.33 268.5 236.9 266.65C235.47 264.8 235.79 262.16 237.64 260.73Z" fill="#9D90D0" fill-opacity="1.000000" fill-rule="nonzero"/>
	<path id="Vector" d="M243.61 268.4C245.99 266.55 246.41 263.06 244.56 260.68C242.71 258.3 239.23 257.88 236.85 259.73C234.47 261.58 234.05 265.07 235.9 267.44C237.75 269.82 241.18 270.3 243.61 268.4ZM237.64 260.73C239.49 259.31 242.13 259.62 243.56 261.47C244.99 263.32 244.67 265.96 242.82 267.39C240.97 268.82 238.33 268.5 236.9 266.65C235.47 264.8 235.79 262.16 237.64 260.73Z" fill="#9D90D0" fill-opacity="1.000000" fill-rule="evenodd"/>
	<path id="Vector" d="M289.01 274.1L270.35 288.37" stroke="#9D90D0" stroke-opacity="1.000000" stroke-width="1.000000"/>
	<path id="Vector" d="M290.01 266.39C287.58 268.24 287.16 271.67 289.01 274.1C290.85 276.53 294.29 276.96 296.72 275.11C299.15 273.26 299.57 269.82 297.72 267.39C295.87 265.01 292.44 264.54 290.01 266.39ZM295.93 274.1C294.08 275.53 291.43 275.16 290.01 273.31C288.58 271.46 288.95 268.82 290.8 267.39C292.65 265.96 295.29 266.33 296.72 268.18C298.09 270.03 297.78 272.68 295.93 274.1Z" fill="#9D90D0" fill-opacity="1.000000" fill-rule="nonzero"/>
	<path id="Vector" d="M290.01 266.39C287.58 268.24 287.16 271.67 289.01 274.1C290.85 276.53 294.29 276.96 296.72 275.11C299.15 273.26 299.57 269.82 297.72 267.39C295.87 265.01 292.44 264.54 290.01 266.39ZM295.93 274.1C294.08 275.53 291.43 275.16 290.01 273.31C288.58 271.46 288.95 268.82 290.8 267.39C292.65 265.96 295.29 266.33 296.72 268.18C298.09 270.03 297.78 272.68 295.93 274.1Z" fill="#9D90D0" fill-opacity="1.000000" fill-rule="evenodd"/>
	<path id="Vector" d="M263.64 286.57C266.07 284.72 269.51 285.2 271.36 287.58C273.21 289.96 272.73 293.44 270.35 295.29C267.92 297.14 264.49 296.67 262.64 294.29C260.79 291.86 261.26 288.42 263.64 286.57ZM269.56 294.29C271.41 292.86 271.78 290.22 270.35 288.37C268.93 286.52 266.28 286.15 264.43 287.58C262.58 289 262.21 291.65 263.64 293.5C265.07 295.35 267.71 295.66 269.56 294.29Z" fill="#9D90D0" fill-opacity="1.000000" fill-rule="nonzero"/>
	<path id="Vector" d="M263.64 286.57C266.07 284.72 269.51 285.2 271.36 287.58C273.21 289.96 272.73 293.44 270.35 295.29C267.92 297.14 264.49 296.67 262.64 294.29C260.79 291.86 261.26 288.42 263.64 286.57ZM269.56 294.29C271.41 292.86 271.78 290.22 270.35 288.37C268.93 286.52 266.28 286.15 264.43 287.58C262.58 289 262.21 291.65 263.64 293.5C265.07 295.35 267.71 295.66 269.56 294.29Z" fill="#9D90D0" fill-opacity="1.000000" fill-rule="evenodd"/>
	<path id="Vector" d="M268.71 273.31L249.05 288.37" stroke="#9D90D0" stroke-opacity="1.000000" stroke-width="1.000000"/>
	<path id="Vector" d="M268.71 266.39C266.28 268.24 265.86 271.67 267.71 274.1C269.56 276.53 272.99 276.96 275.42 275.11C277.85 273.26 278.28 269.82 276.43 267.39C274.58 265.01 271.09 264.54 268.71 266.39ZM274.63 274.1C272.78 275.53 270.14 275.16 268.71 273.31C267.28 271.46 267.66 268.82 269.5 267.39C271.35 265.96 274 266.33 275.42 268.18C276.8 270.03 276.48 272.68 274.63 274.1Z" fill="#9D90D0" fill-opacity="1.000000" fill-rule="nonzero"/>
	<path id="Vector" d="M268.71 266.39C266.28 268.24 265.86 271.67 267.71 274.1C269.56 276.53 272.99 276.96 275.42 275.11C277.85 273.26 278.28 269.82 276.43 267.39C274.58 265.01 271.09 264.54 268.71 266.39ZM274.63 274.1C272.78 275.53 270.14 275.16 268.71 273.31C267.28 271.46 267.66 268.82 269.5 267.39C271.35 265.96 274 266.33 275.42 268.18C276.8 270.03 276.48 272.68 274.63 274.1Z" fill="#9D90D0" fill-opacity="1.000000" fill-rule="evenodd"/>
	<path id="Vector" d="M242.34 286.57C244.77 284.72 248.21 285.2 250.06 287.58C251.91 289.96 251.43 293.44 249.05 295.29C246.62 297.14 243.18 296.67 241.34 294.29C239.49 291.86 239.96 288.42 242.34 286.57ZM248.26 294.29C250.11 292.86 250.48 290.22 249.05 288.37C247.62 286.52 244.98 286.15 243.13 287.58C241.28 289 240.91 291.65 242.34 293.5C243.77 295.35 246.41 295.66 248.26 294.29Z" fill="#9D90D0" fill-opacity="1.000000" fill-rule="nonzero"/>
	<path id="Vector" d="M242.34 286.57C244.77 284.72 248.21 285.2 250.06 287.58C251.91 289.96 251.43 293.44 249.05 295.29C246.62 297.14 243.18 296.67 241.34 294.29C239.49 291.86 239.96 288.42 242.34 286.57ZM248.26 294.29C250.11 292.86 250.48 290.22 249.05 288.37C247.62 286.52 244.98 286.15 243.13 287.58C241.28 289 240.91 291.65 242.34 293.5C243.77 295.35 246.41 295.66 248.26 294.29Z" fill="#9D90D0" fill-opacity="1.000000" fill-rule="evenodd"/>
	<path id="Vector" d="M458.93 154.34C458.93 169.02 447.03 180.92 432.35 180.92C417.67 180.92 405.77 169.02 405.77 154.34C405.77 139.66 417.67 127.76 432.35 127.76C447.03 127.76 458.93 139.66 458.93 154.34Z" fill="url(#paint_radial_206_4787_0)" fill-opacity="1.000000" fill-rule="evenodd"/>
	<path id="Vector" d="M312.24 303.4C312.24 318.08 300.34 329.98 285.66 329.98C270.98 329.98 259.08 318.08 259.08 303.4C259.08 288.72 270.98 276.82 285.66 276.82C300.34 276.82 312.24 288.72 312.24 303.4Z" fill="url(#paint_radial_206_4788_0)" fill-opacity="1.000000" fill-rule="evenodd"/>
	<path id="Vector" d="M178.56 188.65C178.56 203.33 166.66 215.23 151.98 215.23C137.3 215.23 125.4 203.33 125.4 188.65C125.4 173.97 137.3 162.07 151.98 162.07C166.66 162.07 178.56 173.97 178.56 188.65Z" fill="url(#paint_radial_206_4789_0)" fill-opacity="1.000000" fill-rule="evenodd"/>
	<path id="Vector" d="M73.27 92.83C73.27 107.51 61.37 119.41 46.69 119.41C32.01 119.41 20.11 107.51 20.11 92.83C20.11 78.14 32.01 66.24 46.69 66.24C61.37 66.24 73.27 78.14 73.27 92.83Z" fill="url(#paint_radial_206_4790_0)" fill-opacity="1.000000" fill-rule="evenodd"/>
	<path id="Vector" d="M333.53 147.24C333.53 161.92 321.63 173.83 306.95 173.83C292.27 173.83 280.37 161.92 280.37 147.24C280.37 132.56 292.27 120.66 306.95 120.66C321.63 120.66 333.53 132.56 333.53 147.24Z" fill="url(#paint_radial_206_4791_0)" fill-opacity="1.000000" fill-rule="evenodd"/>
	<path id="Vector" d="M379.67 60.88C379.67 75.56 367.77 87.46 353.09 87.46C338.41 87.46 326.51 75.56 326.51 60.88C326.51 46.2 338.41 34.3 353.09 34.3C367.77 34.3 379.67 46.2 379.67 60.88Z" fill="url(#paint_radial_206_4792_0)" fill-opacity="1.000000" fill-rule="evenodd"/>
</svg>
