<svg width="203.000000" height="115.000000" viewBox="0 0 203 115" fill="none" xmlns="http://www.w3.org/2000/svg" xmlns:xlink="http://www.w3.org/1999/xlink">
	<desc>
			Created with Pixso.
	</desc>
	<defs/>
	<path id="illustration (arrow)" d="M122.84 0.66Q121.69 1.03 120.58 1.51L121.77 4.27Q122.64 3.89 123.54 3.59Q126.23 2.7 129.17 2.53L129 -0.46Q125.8 -0.28 122.84 0.66ZM145.55 3.2Q141.49 1.27 137.54 0.34L136.85 3.26Q140.49 4.12 144.27 5.91L145.55 3.2ZM110.34 9.4Q108.46 11.66 107.18 14.47L109.91 15.72Q111.02 13.27 112.65 11.32Q113.97 9.73 115.41 8.43L113.39 6.21Q111.8 7.65 110.34 9.4ZM159.47 12.57Q156.22 9.71 152.86 7.42L151.17 9.9Q154.38 12.08 157.49 14.82L159.47 12.57ZM170.78 24.84Q168.21 21.44 165.38 18.36L163.17 20.39Q165.91 23.36 168.38 26.64L170.78 24.84ZM105.63 30.88Q106.45 34.27 108.21 37.42L110.83 35.96Q109.24 33.11 108.52 30.06Q108.05 28.05 107.95 25.95L104.96 26.09Q105.07 28.54 105.63 30.88ZM179.48 39.06Q177.69 35.35 175.48 31.75L172.92 33.31Q175.05 36.79 176.78 40.37L179.48 39.06ZM199.12 37.71Q201.29 36.06 202.49 34.98L200.5 32.74Q199.37 33.74 197.3 35.33L199.12 37.71ZM184.4 47.16Q188.31 45.08 192.1 42.64L190.48 40.11Q186.79 42.49 182.99 44.51L184.4 47.16ZM120.74 49.66Q122.71 50.81 124.73 51.78L126.03 49.08Q124.12 48.15 122.25 47.07Q119.79 45.63 117.73 43.96L115.84 46.3Q118.08 48.1 120.74 49.66ZM2.46 62.96L8.89 57.26L15.32 51.55L-1 46.12L2.46 62.96ZM184.96 54.87Q184.13 50.88 182.7 46.78L179.86 47.78Q181.24 51.68 182.02 55.48L184.96 54.87ZM168.11 54Q172.19 52.75 176.32 51.01L175.15 48.25Q171.17 49.93 167.24 51.13L168.11 54ZM134.05 55.25Q137.81 56.27 141.73 56.73L142.08 53.75Q138.29 53.3 134.64 52.31Q134.25 52.2 133.86 52.08L133.02 54.97Q133.53 55.11 134.05 55.25ZM150.6 57.07Q154.98 56.91 159.49 56.1L158.96 53.15Q154.66 53.92 150.49 54.08L150.6 57.07ZM9.06 58.39Q12.2 61.25 15.61 64.1L17.53 61.8Q14.18 58.99 11.08 56.17L9.06 58.39ZM185.99 67.44Q186.11 65.38 186.02 63.24L183.02 63.36Q183.1 65.36 183 67.28Q182.88 69.4 182.53 71.47L185.49 71.97Q185.86 69.74 185.99 67.44ZM22.28 69.49Q25.66 72.11 29.17 74.65L30.93 72.22Q27.46 69.71 24.12 67.12L22.28 69.49ZM36.24 79.58Q39.78 81.96 43.4 84.23L44.99 81.69Q41.41 79.45 37.91 77.09L36.24 79.58ZM178.66 88.51Q181.3 84.74 183.01 80.62L180.23 79.47Q178.65 83.29 176.2 86.79L178.66 88.51ZM50.65 88.6Q54.51 90.84 58.43 92.94L59.85 90.3Q55.97 88.22 52.16 86.01L50.65 88.6ZM165.9 101.01Q169.7 98.36 172.85 95.31L170.76 93.15Q167.79 96.04 164.18 98.55L165.9 101.01ZM65.87 96.77Q69.76 98.69 73.71 100.48L74.94 97.74Q71.04 95.98 67.19 94.08L65.87 96.77ZM81.69 103.93Q85.62 105.54 89.58 107.02L90.63 104.21Q86.71 102.75 82.83 101.15L81.69 103.93ZM150.11 109.13Q154.37 107.57 158.27 105.57L156.91 102.9Q153.17 104.81 149.08 106.32L150.11 109.13ZM102.05 111.29Q104.1 111.94 106.27 112.44L106.95 109.52Q104.89 109.04 102.94 108.43Q100.85 107.77 98.76 107.08L97.81 109.92Q99.92 110.63 102.05 111.29ZM139.35 112.25Q140.47 112.01 141.6 111.73L140.88 108.82Q139.83 109.08 138.77 109.31Q135.65 109.99 132.47 110.42L132.87 113.39Q136.14 112.95 139.35 112.25ZM115.16 113.84Q119.49 114.24 124 114.12L123.92 111.12Q119.59 111.23 115.43 110.86L115.16 113.84Z" fill="#9D90D0" fill-opacity="1.000000" fill-rule="evenodd"/>
</svg>
