<svg width="123.000000" height="77.000000" viewBox="0 0 123 77" fill="none" xmlns="http://www.w3.org/2000/svg" xmlns:xlink="http://www.w3.org/1999/xlink">
	<desc>
			Created with Pixso.
	</desc>
	<defs/>
	<path id="illustration (arrow)" d="M59.6 2.34Q63.65 2.29 67.5 2.6L67.74 -0.39Q63.75 -0.71 59.56 -0.66L59.6 2.34ZM43.84 3.78Q47.86 3.12 51.75 2.76L51.48 -0.23Q47.48 0.14 43.35 0.82L43.84 3.78ZM79.14 4.45Q81.11 4.94 83.01 5.56L83.94 2.71Q81.93 2.05 79.85 1.54Q77.87 1.05 75.83 0.67L75.28 3.62Q77.24 3.98 79.14 4.45ZM28.43 7.28Q32.27 6.18 36.05 5.31L35.38 2.39Q31.52 3.27 27.6 4.4L28.43 7.28ZM13.56 12.4L16.54 17.95L-0.65 17.41L8.41 2.8L12.14 9.74Q15.9 8.22 19.74 6.89L20.72 9.73Q17.1 10.98 13.56 12.4ZM90.27 8.54Q93.82 10.32 96.97 12.6L98.73 10.17Q95.39 7.75 91.62 5.86L90.27 8.54ZM102.91 17.72Q105.69 20.57 107.83 23.79L110.33 22.14Q108.03 18.68 105.06 15.62L102.91 17.72ZM111.45 30.69Q112.92 34.42 113.43 38.17L116.41 37.77Q115.85 33.65 114.24 29.59L111.45 30.69ZM112.56 49.55Q111.92 51.61 110.78 53.53L113.36 55.06Q114.67 52.85 115.42 50.48Q115.42 50.46 115.43 50.44Q116.07 48.41 116.38 46.27L113.42 45.83Q113.13 47.74 112.56 49.55ZM84.38 51.49Q86.78 51.68 89.53 52.66L90.54 49.83Q87.41 48.72 84.61 48.5Q82.03 48.3 79.37 48.54L79.65 51.53Q82.05 51.31 84.38 51.49ZM63.13 59.3Q65.49 56.1 70.47 53.89L69.25 51.15Q63.55 53.68 60.72 57.52L63.13 59.3ZM105.99 63.08Q107.02 63.95 108.06 64.89L110.06 62.65Q105.34 58.42 100.95 55.4L99.25 57.87Q101.38 59.34 103.6 61.11Q100.78 63.15 97.23 64.84L98.51 67.55Q102.71 65.56 105.99 63.08ZM66.7 69.17Q64.39 67.94 63.12 66.49L60.86 68.46Q62.49 70.32 65.29 71.82Q67.09 72.78 70.32 73.11L70.62 70.12Q67.99 69.86 66.7 69.17ZM88.64 68.03Q84.14 69.3 79.59 69.87L79.97 72.85Q84.74 72.25 89.46 70.91L88.64 68.03ZM116.14 72.81Q118.47 75.3 119.84 76.95L122.15 75.04Q120.72 73.31 118.33 70.76L116.14 72.81Z" fill="#FFAF99" fill-opacity="1.000000" fill-rule="evenodd"/>
</svg>
